<?xml version="1.0" standalone="no"?>
<!DOCTYPE svg PUBLIC "-//W3C//DTD SVG 20010904//EN"
 "http://www.w3.org/TR/2001/REC-SVG-20010904/DTD/svg10.dtd">
<svg version="1.0" xmlns="http://www.w3.org/2000/svg"
 width="1620.000000pt" height="1080.000000pt" viewBox="0 0 1620.000000 1080.000000"
 preserveAspectRatio="xMidYMid meet">

<g transform="translate(0.000000,1080.000000) scale(0.100000,-0.100000)"
fill="#000000" stroke="none">
<path d="M0 8316 l0 -2485 38 6 c20 3 39 9 42 13 13 18 53 30 101 30 37 0 64
7 94 25 23 13 45 22 48 19 3 -3 10 3 16 14 6 11 22 23 37 26 14 4 24 10 20 13
-10 10 42 32 63 26 12 -3 42 5 67 17 26 12 55 19 66 17 10 -3 16 -1 13 3 -10
16 7 37 40 50 26 10 35 20 35 37 0 13 6 24 13 24 6 1 19 3 27 4 8 1 21 3 28 4
6 0 12 7 12 15 0 20 30 41 54 39 15 -1 16 0 4 3 -23 7 -23 16 2 32 25 16 25
33 0 55 -23 20 -18 37 10 37 27 0 35 18 16 39 -9 10 -16 23 -16 29 0 7 -5 12
-11 12 -6 0 -8 -7 -5 -16 5 -12 2 -15 -10 -10 -8 3 -20 6 -25 6 -5 0 -9 18 -9
40 0 42 24 58 33 23 3 -10 5 8 6 40 l1 57 -31 0 c-16 0 -28 4 -24 9 3 5 -4 12
-15 16 -24 8 -17 25 10 25 10 0 20 6 23 14 4 11 -1 13 -19 10 -32 -6 -65 23
-43 37 12 8 12 10 -1 19 -13 9 -13 11 0 20 8 5 23 10 33 10 13 0 17 9 17 40 0
22 5 40 10 40 6 0 10 -12 10 -27 0 -38 19 -69 20 -33 1 28 17 54 40 63 10 4 8
6 -7 6 -38 2 -26 21 12 21 24 0 35 -5 35 -15 0 -8 4 -15 10 -15 5 0 6 9 1 23
-6 17 -17 23 -50 25 -37 3 -41 5 -40 30 1 17 3 21 6 10 2 -10 13 -18 23 -18
10 0 25 -3 34 -6 9 -3 16 -1 16 5 0 6 -7 11 -15 11 -8 0 -15 5 -15 10 0 6 11
10 25 10 14 0 25 -4 25 -10 0 -5 9 -10 20 -10 11 0 20 -4 20 -10 0 -5 11 -10
24 -10 14 0 28 5 31 10 3 6 -3 10 -14 10 -26 0 -26 5 -2 32 24 25 51 18 52
-14 0 -15 3 -18 6 -8 9 24 20 27 90 28 66 1 108 -11 98 -29 -4 -5 3 -9 14 -9
13 0 19 5 15 14 -10 25 24 26 40 0 9 -13 22 -24 29 -24 8 0 9 2 1 8 -8 5 -8
15 -2 32 9 22 11 23 20 9 10 -14 13 -14 29 2 12 12 31 18 54 17 25 -1 40 5 55
22 11 13 20 18 20 12 0 -7 9 -12 20 -12 11 0 20 -5 20 -11 0 -6 7 -8 16 -5 9
4 22 2 29 -4 9 -8 14 -6 19 5 4 12 10 13 24 6 10 -5 47 -6 90 -1 40 4 82 6 93
3 20 -6 69 33 69 55 0 20 16 14 30 -13 l13 -25 12 23 c6 12 16 21 21 20 37 -9
89 -33 92 -42 6 -18 23 -13 44 14 22 28 68 35 68 10 0 -8 -4 -15 -10 -15 -5 0
-10 -7 -10 -15 0 -18 17 -20 23 -2 2 6 7 -8 11 -33 14 -91 17 -99 37 -102 11
-2 19 -7 19 -12 -1 -5 4 -13 12 -17 10 -7 10 -9 1 -9 -7 0 -13 -12 -13 -28 0
-15 -5 -43 -10 -62 -24 -81 -23 -200 2 -200 6 0 26 11 44 25 18 14 40 25 50
25 20 0 104 55 159 104 22 20 49 39 60 42 42 14 55 50 41 110 -6 27 -11 30
-32 26 -14 -2 -37 -15 -51 -28 -13 -12 -38 -26 -54 -29 -39 -9 -89 3 -89 21 0
17 -12 18 -29 2 -10 -9 -12 -9 -7 -1 3 6 -1 16 -10 21 -14 8 -16 20 -11 73 4
51 2 68 -11 83 -13 14 -14 20 -4 23 6 3 12 13 12 23 0 10 8 21 17 23 15 4 15
5 -2 6 -17 1 -20 8 -20 50 0 27 3 52 7 56 4 4 4 13 2 20 -8 21 49 71 92 80 21
5 66 9 99 10 58 0 62 2 111 50 90 87 91 93 102 401 5 148 10 293 10 323 0 30
5 57 10 60 5 3 13 22 17 41 11 51 36 83 156 202 129 128 206 172 321 188 40 5
249 10 463 10 215 0 404 1 420 2 55 3 215 -6 215 -13 0 -12 262 0 345 16 49
10 105 14 197 14 101 1 94 -9 104 139 4 56 9 104 13 106 11 7 1749 22 1939 17
15 -1 26 -10 33 -28 26 -68 90 -108 161 -100 30 4 46 2 43 -3 -8 -14 -101 -12
-128 1 -12 6 -38 26 -57 43 -21 20 -55 37 -85 44 -66 16 -245 18 -272 3 -15
-7 -30 -8 -47 -1 -14 5 -60 9 -103 8 -44 -1 -84 1 -90 5 -6 4 -13 -2 -16 -14
-5 -19 -7 -19 -29 -5 -16 10 -46 15 -89 15 -35 0 -67 0 -71 1 -10 3 -47 3 -50
0 -8 -6 -38 -7 -38 -2 0 4 -30 6 -67 5 -81 -2 -302 -4 -323 -3 -8 1 -160 0
-338 -2 -221 -1 -328 -5 -339 -13 -14 -10 -16 -116 -20 -926 -6 -1316 -10
-1660 -18 -1694 -4 -16 -8 -291 -10 -610 -2 -319 -6 -807 -10 -1085 -7 -571
-7 -747 3 -805 6 -33 7 -126 3 -205 -4 -82 6 -490 12 -490 5 0 5 -6 0 -12 -4
-7 -8 -110 -10 -228 -1 -118 -5 -327 -8 -465 -3 -137 -6 -254 -6 -260 0 -5 3
-52 7 -103 5 -66 4 -92 -5 -92 -6 0 -11 -7 -11 -16 0 -8 5 -12 10 -9 7 4 9 -3
6 -21 -3 -15 0 -34 6 -41 9 -11 7 -15 -10 -20 -23 -5 -29 -18 -14 -27 5 -3 9
-20 10 -37 0 -18 4 -48 7 -68 3 -20 2 -48 -3 -61 -5 -14 -6 -33 -3 -43 4 -10
4 -44 0 -75 -3 -32 -5 -58 -4 -60 1 -1 16 -4 34 -6 21 -2 34 2 41 13 9 14 11
14 21 1 8 -11 12 -12 16 -2 6 14 63 17 63 2 0 -5 12 -10 28 -11 l27 -1 -28 -8
c-16 -5 -67 -8 -114 -7 -83 2 -105 -5 -85 -25 6 -6 361 -9 993 -8 541 1 1767
2 2724 2 1901 1 2620 7 2620 23 0 6 -26 11 -57 13 -32 2 -58 7 -58 13 0 5 11
7 25 3 15 -4 25 -2 25 5 0 6 5 11 11 11 5 0 8 -4 5 -9 -3 -5 5 -8 17 -7 21 1
36 26 16 26 -4 0 -3 14 3 32 9 24 8 33 0 36 -15 5 -15 35 0 50 8 8 8 15 0 25
-8 9 -11 61 -9 154 1 78 -1 139 -5 136 -5 -2 -8 1 -8 6 0 6 5 11 11 11 7 0 8
11 4 31 -6 25 -7 102 -4 204 1 6 -3 32 -7 59 -5 36 -4 47 4 42 7 -4 12 -1 12
8 0 9 -4 16 -10 16 -5 0 -9 37 -7 90 1 49 5 90 10 90 11 0 8 128 -3 135 -5 3
-10 12 -10 18 0 8 3 7 9 -2 6 -9 9 2 9 30 1 30 -2 39 -8 29 -7 -11 -10 -8 -10
13 0 16 4 26 10 22 14 -9 13 8 -2 23 -9 9 -9 15 0 24 7 7 12 17 12 23 0 5 -5
3 -10 -5 -8 -13 -10 -13 -10 2 0 9 6 18 13 21 9 3 9 7 -1 19 -7 9 -9 18 -5 21
7 5 9 103 2 117 -8 17 -2 386 6 393 7 6 6 10 0 13 -18 7 -4 679 15 698 5 5 9
-202 10 -530 0 -296 3 -555 7 -576 6 -39 20 -50 28 -23 17 53 15 51 36 25 11
-14 24 -34 29 -45 6 -11 14 -27 20 -35 14 -23 39 -82 49 -117 11 -39 -16 -141
-41 -157 -25 -15 -70 4 -86 37 -7 15 -19 27 -27 27 -11 0 -14 -56 -14 -318 0
-174 3 -333 8 -352 6 -32 10 -35 42 -36 19 0 39 -3 45 -6 5 -3 90 -6 189 -7
931 -9 1162 -12 1240 -15 50 -1 173 3 275 10 102 8 380 15 618 17 l432 4 21
24 c44 49 61 108 63 209 1 130 -14 1005 -23 1335 -5 149 -9 413 -10 587 -1
174 -4 336 -6 360 -2 24 -6 264 -9 533 -4 270 -9 524 -11 565 -8 147 -15 442
-20 915 -6 548 -16 1047 -21 1056 -2 3 -4 98 -4 210 -2 224 -8 278 -37 317
-24 32 -54 40 -173 47 -281 16 -519 55 -513 84 2 6 -3 11 -11 11 -29 0 -27 50
2 50 15 1 15 2 -1 11 -12 7 -16 17 -11 31 4 14 2 18 -5 14 -6 -4 -11 -3 -11 3
0 5 5 13 10 16 16 10 12 25 -7 25 -14 0 -15 2 -4 9 9 6 11 18 6 40 -5 24 -3
31 9 31 19 0 21 23 4 49 -9 15 -8 22 5 36 21 20 22 34 3 41 -8 3 -16 14 -19
25 -3 12 -1 17 5 12 8 -4 9 11 5 48 -3 30 -1 62 4 72 6 11 6 32 -1 58 -9 32
-9 48 1 65 7 13 8 30 4 41 -5 10 -7 22 -6 27 7 33 7 86 -2 89 -6 2 -6 10 1 23
6 12 9 44 5 77 -4 39 -2 57 6 57 17 0 14 72 -5 98 -14 20 -14 22 1 22 12 0 15
6 9 23 -3 12 -11 24 -15 25 -15 6 -10 29 6 36 13 4 14 16 9 55 -4 33 -2 51 6
56 9 6 9 10 -1 16 -12 8 -12 11 0 18 12 8 13 15 3 35 -6 14 -8 27 -4 30 8 5 8
63 0 72 -9 8 3 448 12 458 5 5 5 18 -1 28 -6 11 -8 31 -5 44 4 13 2 42 -3 64
-5 23 -5 40 0 40 5 0 9 18 9 40 0 22 -4 40 -8 40 -5 0 -5 29 -1 64 4 35 5 76
0 92 -4 15 -4 54 1 86 4 34 4 68 -2 83 -7 18 -7 33 0 46 8 13 7 27 -3 46 -7
16 -12 36 -10 46 3 9 -1 17 -8 17 -8 0 -6 7 5 19 10 11 16 28 14 38 -3 17
-227 18 -6696 21 l-6692 2 0 -2484z m9782 501 c4 -7 8 -19 8 -27 -1 -12 -4
-11 -15 3 -10 14 -26 19 -67 18 -819 -9 -1515 -12 -2020 -9 -229 2 -414 0
-412 -3 2 -4 -3 -9 -11 -13 -22 -8 -19 21 3 33 11 6 366 10 922 11 497 0 905
2 906 3 1 1 154 1 340 -1 251 -2 340 -6 346 -15z m381 12 c13 -1 5 -5 -17 -10
-21 -5 -41 -7 -44 -5 -9 10 11 27 25 22 8 -3 24 -6 36 -7z m422 1 c9 -15 -33
-21 -115 -17 -41 2 -92 0 -112 -3 -21 -4 -38 -3 -38 1 0 5 -24 10 -52 11 -46
1 -43 2 22 7 137 11 289 11 295 1z m445 -2 c0 -11 -99 -14 -277 -9 -24 0 -43
6 -43 11 0 7 55 10 160 9 88 -1 160 -6 160 -11z m140 0 c0 -4 -30 -7 -67 -7
-51 1 -61 3 -38 9 39 9 105 8 105 -2z m67 -33 c0 -22 4 -224 7 -450 3 -225 8
-424 12 -440 4 -20 15 -35 32 -43 34 -14 65 -45 99 -97 56 -86 66 -122 73
-268 7 -133 8 -140 34 -165 l27 -27 660 3 c431 2 668 6 681 13 32 17 37 51 29
181 -15 229 38 355 161 389 48 12 383 5 438 -10 19 -5 46 -13 60 -16 90 -25
255 -137 313 -213 20 -27 37 -52 37 -56 0 -4 7 -14 15 -22 8 -8 20 -34 26 -57
6 -23 15 -46 19 -52 19 -23 27 -132 24 -310 -2 -104 -9 -199 -14 -210 -20 -37
-75 -64 -137 -67 -56 -2 -87 8 -185 58 -42 22 -163 18 -214 -7 -78 -37 -99
-106 -74 -240 18 -96 41 -282 47 -384 11 -184 9 -428 -4 -463 -14 -39 -11 -51
24 -76 22 -16 45 -19 157 -20 117 -1 136 -4 179 -25 26 -14 54 -35 62 -47 10
-16 28 -24 63 -29 61 -8 106 -48 124 -109 8 -28 11 -184 12 -506 1 -425 -1
-468 -17 -502 -25 -52 -59 -76 -122 -83 -66 -9 -121 8 -199 60 -48 32 -61 36
-108 34 -89 -4 -208 -38 -208 -59 0 -6 -4 -9 -9 -6 -10 7 -21 -27 -21 -66 0
-15 9 -51 19 -80 10 -29 21 -69 24 -88 3 -19 15 -87 26 -150 26 -146 32 -224
33 -435 1 -149 -1 -179 -20 -238 -24 -75 -19 -106 20 -130 13 -8 39 -14 58
-12 19 2 55 -1 78 -6 27 -6 57 -6 78 0 19 5 36 6 39 1 3 -4 22 -11 42 -15 47
-9 85 -28 117 -60 14 -14 33 -25 42 -25 37 0 102 -40 110 -68 4 -15 8 -103 10
-197 2 -167 2 -171 -28 -255 -29 -80 -120 -230 -139 -230 -5 0 -9 -5 -9 -12 0
-14 -65 -76 -115 -109 -91 -59 -232 -84 -268 -47 -14 14 -15 21 -4 45 16 37
63 110 77 118 5 3 10 21 10 38 0 24 3 28 10 17 5 -8 10 -13 11 -10 0 3 2 14 5
25 10 47 6 108 -7 116 -8 6 -41 6 -79 2 -98 -12 -191 -9 -225 8 -24 11 -32 24
-40 64 -6 28 -15 49 -21 47 -5 -1 -15 21 -22 50 -7 28 -22 64 -32 78 -11 15
-17 29 -15 32 3 3 -4 13 -15 23 -11 10 -20 28 -20 40 0 29 -20 87 -36 103 -12
12 -13 28 -5 205 0 16 5 26 11 22 6 -3 10 -1 10 5 0 6 10 8 25 4 21 -5 24 -3
19 11 -5 12 1 24 17 36 20 15 21 19 7 19 -11 0 -18 8 -18 20 0 20 14 27 23 13
2 -5 2 -2 1 5 -2 6 1 12 6 12 5 0 2 16 -6 36 -13 30 -13 38 -3 45 10 6 9 9 -4
15 -27 10 -20 24 14 24 18 0 28 4 24 10 -4 6 -15 8 -26 5 -21 -7 -27 10 -6 18
9 3 11 35 10 118 -4 212 -5 244 -10 226 -7 -28 -23 -19 -23 14 0 21 -4 28 -12
23 -8 -5 -8 -1 1 10 12 14 12 21 3 37 -10 16 -10 22 0 33 7 7 19 11 27 8 10
-3 12 0 7 14 -5 11 -12 53 -18 94 -9 70 -18 104 -18 67 0 -29 -18 -18 -30 18
-10 31 -14 34 -48 32 -28 -2 -37 2 -40 17 -3 16 0 18 22 12 19 -5 26 -3 26 9
0 9 -9 15 -22 15 -28 0 -43 10 -43 30 0 8 -11 17 -25 20 -24 6 -25 8 -28 108
-2 82 -6 102 -17 102 -11 0 -15 -11 -15 -36 0 -39 -20 -63 -54 -64 -16 0 -17
-3 -8 -12 7 -7 12 -18 12 -25 0 -16 -30 -5 -51 19 -9 10 -24 18 -33 18 -9 0
-16 5 -16 10 0 6 7 10 15 10 18 0 9 26 -12 35 -9 3 -20 0 -24 -6 -9 -15 -26 1
-48 44 -17 32 -36 35 -53 7 -18 -28 -25 -25 -32 15 -6 28 -15 39 -46 55 -34
17 -40 18 -40 5 0 -18 -20 -21 -20 -2 0 7 -7 4 -15 -7 -8 -11 -15 -17 -15 -14
0 4 -3 13 -6 22 -4 12 0 16 15 16 12 0 21 6 21 15 0 11 -11 15 -40 15 -22 0
-40 -4 -40 -10 0 -18 -26 -10 -49 14 -14 15 -20 30 -16 37 5 8 4 10 -3 5 -7
-4 -12 -2 -12 3 0 6 -9 11 -19 11 -11 0 -21 4 -23 8 -7 18 -56 22 -72 7 -9 -9
-33 -15 -60 -15 -47 0 -55 7 -34 28 9 9 7 12 -13 12 -45 0 -69 12 -70 34 -1
17 -2 17 -6 4 -2 -10 -9 -18 -14 -18 -5 0 -10 -10 -10 -22 l-2 -23 -4 23 c-5
27 -23 29 -23 2 0 -11 -4 -20 -10 -20 -5 0 -10 9 -10 20 0 27 -18 25 -23 -2
-4 -20 -4 -19 -6 5 -1 20 -6 27 -21 27 -19 0 -20 -1 -4 -25 15 -23 15 -25 0
-31 -9 -3 -23 -3 -31 0 -13 4 -14 10 -5 26 9 17 8 20 -9 20 -14 0 -19 -5 -15
-15 3 -8 -1 -21 -9 -30 -17 -16 -43 -20 -49 -6 -5 13 -68 25 -68 12 0 -6 11
-11 25 -11 14 0 25 -4 25 -8 0 -13 -74 -8 -88 6 -7 6 -27 12 -43 12 -16 0 -29
5 -29 10 0 6 -11 10 -25 10 -14 0 -25 -4 -25 -10 0 -5 7 -10 15 -10 8 0 15 -4
15 -10 0 -5 -9 -10 -19 -10 -11 0 -26 -7 -35 -15 -12 -12 -29 -14 -84 -9 -57
6 -75 3 -100 -12 -31 -18 -61 -12 -32 6 13 8 13 10 -1 10 -32 0 -38 -23 -35
-150 2 -69 0 -159 -3 -200 -3 -41 -8 101 -11 315 -3 215 -3 413 0 440 l6 50 7
-37 c9 -43 24 -57 34 -31 3 10 11 25 17 33 22 28 39 91 28 102 -6 6 -9 16 -7
22 4 11 -52 62 -60 54 -3 -2 -8 -29 -13 -59 -8 -53 -8 -52 -15 51 -3 58 -6
293 -7 524 0 230 -3 423 -6 428 -8 13 -16 182 -15 303 0 50 0 104 -1 120 0 17
-1 60 -2 97 0 36 -4 61 -8 55 -5 -9 -11 -8 -20 1 -11 11 -10 16 5 27 18 13 18
41 18 527 -2 736 -8 1388 -14 1421 -4 22 -2 27 11 25 12 -2 17 -15 19 -43z
m-2311 -64 c-10 -16 -36 -13 -43 5 -8 22 18 37 36 20 7 -8 10 -19 7 -25z m134
13 c0 -19 -28 -30 -42 -16 -8 8 -8 15 1 26 14 17 41 10 41 -10z m59 17 c17
-11 7 -41 -13 -41 -19 0 -28 14 -20 34 7 18 13 19 33 7z m211 -16 c0 -15 -27
-28 -41 -19 -13 8 -11 32 4 37 18 6 37 -3 37 -18z m57 9 c8 -21 -13 -42 -28
-27 -13 13 -5 43 11 43 6 0 13 -7 17 -16z m70 0 c8 -21 -13 -42 -28 -27 -13
13 -5 43 11 43 6 0 13 -7 17 -16z m73 -16 c0 -15 -32 -21 -40 -7 -13 20 9 43
26 28 8 -6 14 -16 14 -21z m128 9 c2 -12 -3 -17 -17 -17 -12 0 -21 6 -21 13 0
31 32 34 38 4z m66 6 c8 -21 -14 -36 -31 -21 -10 8 -10 14 -2 24 15 19 25 18
33 -3z m474 -6 c2 -12 -3 -17 -17 -17 -15 0 -21 6 -21 21 0 25 33 22 38 -4z
m68 12 c9 -15 -11 -33 -30 -26 -9 4 -13 13 -10 22 7 17 30 20 40 4z m-4476
-30 c0 -12 -7 -19 -19 -19 -26 0 -36 17 -21 35 15 18 40 8 40 -16z m269 12
c12 -21 5 -31 -21 -31 -23 0 -36 29 -17 41 20 13 27 11 38 -10z m201 -12 c0
-12 -7 -19 -20 -19 -24 0 -38 29 -20 40 19 12 40 1 40 -21z m66 -8 c-9 -14
-33 -14 -41 -1 -4 6 -1 18 6 26 11 13 14 13 27 0 8 -8 11 -19 8 -25z m2332 22
c5 -17 -26 -29 -40 -15 -6 6 -7 15 -3 22 9 14 37 9 43 -7z m62 -3 c0 -13 -7
-20 -20 -20 -13 0 -20 7 -20 20 0 13 7 20 20 20 13 0 20 -7 20 -20z m70 0 c0
-13 -7 -20 -20 -20 -13 0 -20 7 -20 20 0 13 7 20 20 20 13 0 20 -7 20 -20z
m68 3 c5 -17 -26 -29 -40 -15 -6 6 -7 15 -3 22 9 14 37 9 43 -7z m130 0 c-2
-10 -10 -18 -18 -18 -8 0 -16 8 -18 18 -2 12 3 17 18 17 15 0 20 -5 18 -17z
m206 9 c9 -14 -12 -35 -28 -29 -23 9 -20 37 3 37 11 0 22 -4 25 -8z m66 -6 c0
-8 -5 -18 -10 -21 -13 -8 -42 14 -34 26 9 15 44 10 44 -5z m334 6 c2 -4 1 -14
-3 -20 -10 -16 -41 -5 -41 14 0 15 35 20 44 6z m-4136 -25 c2 -11 -3 -17 -17
-17 -23 0 -35 15 -26 31 10 15 39 6 43 -14z m67 3 c0 -8 -10 -16 -22 -18 -18
-3 -23 2 -23 18 0 16 5 21 23 18 12 -2 22 -10 22 -18z m65 0 c0 -21 -33 -29
-45 -10 -9 15 4 30 26 30 12 0 19 -7 19 -20z m68 -2 c3 -13 -3 -18 -22 -18
-20 0 -26 5 -26 21 0 15 5 20 22 17 13 -2 24 -11 26 -20z m67 12 c9 -15 -14
-40 -31 -33 -22 8 -18 43 5 43 11 0 23 -5 26 -10z m133 -13 c3 -14 -1 -18 -20
-15 -12 2 -24 11 -26 21 -3 14 1 18 20 15 12 -2 24 -11 26 -21z m67 3 c0 -8
-10 -16 -22 -18 -18 -3 -23 2 -23 18 0 16 5 21 23 18 12 -2 22 -10 22 -18z
m73 3 c4 -16 -22 -27 -43 -19 -22 8 -6 38 18 34 11 -2 22 -9 25 -15z m127 -3
c0 -8 -10 -16 -22 -18 -18 -3 -23 2 -23 18 0 16 5 21 23 18 12 -2 22 -10 22
-18z m68 6 c7 -17 -1 -26 -24 -26 -17 0 -32 23 -22 34 12 11 41 6 46 -8z
m4945 -28 c3 -22 -2 -29 -23 -34 -34 -8 -49 7 -41 41 5 21 12 26 34 23 21 -2
28 -9 30 -30z m-6010 10 c7 -7 12 -25 12 -40 0 -50 -76 -60 -94 -12 -16 41 51
83 82 52z m3590 -41 c2 -12 -3 -17 -17 -17 -12 0 -21 6 -21 13 0 31 32 34 38
4z m70 0 c2 -12 -3 -17 -17 -17 -12 0 -21 6 -21 13 0 31 32 34 38 4z m69 7 c3
-8 1 -20 -6 -27 -14 -14 -47 15 -37 32 10 16 36 13 43 -5z m61 -7 c2 -12 -3
-17 -17 -17 -12 0 -21 6 -21 13 0 31 32 34 38 4z m70 0 c2 -12 -3 -17 -17 -17
-12 0 -21 6 -21 13 0 31 32 34 38 4z m72 -3 c0 -8 -8 -14 -18 -14 -25 0 -34
11 -21 26 13 15 39 7 39 -12z m65 6 c0 -8 -10 -16 -22 -18 -22 -3 -32 16 -16
32 12 11 38 2 38 -14z m63 -3 c2 -12 -3 -17 -17 -17 -12 0 -21 6 -21 13 0 31
32 34 38 4z m70 0 c2 -11 -3 -17 -16 -17 -26 0 -34 11 -20 27 14 17 32 12 36
-10z m70 6 c5 -17 -26 -29 -40 -15 -6 6 -7 15 -3 22 9 14 37 9 43 -7z m62 -3
c0 -13 -7 -20 -20 -20 -19 0 -27 20 -13 33 13 14 33 6 33 -13z m68 -3 c2 -12
-3 -17 -17 -17 -12 0 -21 6 -21 13 0 31 32 34 38 4z m72 3 c0 -13 -7 -20 -20
-20 -13 0 -20 7 -20 20 0 13 7 20 20 20 13 0 20 -7 20 -20z m68 3 c5 -17 -26
-29 -40 -15 -6 6 -7 15 -3 22 9 14 37 9 43 -7z m62 -3 c0 -13 -7 -20 -20 -20
-19 0 -27 20 -13 33 13 14 33 6 33 -13z m70 6 c0 -8 -5 -18 -10 -21 -17 -11
-40 3 -34 20 8 19 44 20 44 1z m468 -3 c-2 -10 -10 -18 -18 -18 -8 0 -16 8
-18 18 -2 12 3 17 18 17 15 0 20 -5 18 -17z m70 0 c5 -17 -26 -29 -40 -15 -6
6 -7 15 -3 22 9 14 37 9 43 -7z m-4812 -32 c-10 -16 -36 -13 -43 5 -8 22 18
37 36 20 7 -8 10 -19 7 -25z m64 24 c15 -18 5 -35 -21 -35 -12 0 -19 7 -19 18
0 33 20 42 40 17z m70 -10 c0 -21 -19 -28 -36 -15 -10 9 -11 16 -3 26 12 15
39 8 39 -11z m68 2 c4 -20 -25 -34 -40 -19 -15 15 -1 44 19 40 10 -2 19 -11
21 -21z m59 12 c14 -14 6 -39 -12 -39 -18 0 -28 17 -21 35 6 18 18 19 33 4z
m70 -5 c9 -23 -13 -40 -32 -24 -12 10 -13 16 -4 26 15 18 28 18 36 -2z m62 7
c17 -11 7 -41 -13 -41 -19 0 -29 17 -22 35 6 17 15 18 35 6z m79 -14 c4 -20
-25 -34 -40 -19 -15 15 -1 44 19 40 10 -2 19 -11 21 -21z m63 7 c10 -13 10
-17 -2 -25 -17 -11 -21 -11 -38 0 -17 11 -7 41 12 41 8 0 20 -7 28 -16z m67
-7 c4 -20 -25 -34 -39 -20 -14 14 1 45 20 41 9 -2 17 -11 19 -21z m61 14 c17
-11 7 -41 -13 -41 -19 0 -29 17 -22 35 6 17 15 18 35 6z m66 -16 c0 -28 -29
-25 -33 3 -3 19 0 23 15 20 10 -2 18 -12 18 -23z m70 1 c0 -22 -14 -29 -34
-17 -19 12 -6 43 16 39 10 -2 18 -12 18 -22z m70 0 c0 -22 -14 -29 -34 -17
-19 12 -6 43 16 39 10 -2 18 -12 18 -22z m2335 10 c0 -19 -25 -27 -39 -13 -18
18 -13 27 14 27 15 0 25 -6 25 -14z m1212 -106 c352 1 400 -5 516 -62 82 -41
181 -137 220 -215 61 -121 61 -111 63 -725 4 -711 7 -775 42 -851 34 -75 115
-159 202 -210 84 -49 152 -117 194 -196 61 -115 59 -91 63 -1076 2 -495 -1
-919 -5 -943 -7 -33 -12 -40 -22 -32 -9 8 -14 3 -19 -21 -3 -17 -3 -35 0 -40
9 -15 -6 -50 -18 -43 -7 4 -8 2 -4 -5 4 -6 2 -19 -5 -27 -10 -12 -14 -12 -21
-2 -6 9 -7 6 -4 -8 4 -14 -2 -28 -21 -45 -20 -18 -24 -19 -13 -4 11 16 9 15
-12 -4 -15 -13 -24 -29 -22 -36 6 -14 -37 -45 -62 -45 -10 0 -15 -3 -11 -6 3
-4 -20 -24 -52 -44 -32 -21 -62 -43 -65 -49 -4 -6 -12 -9 -17 -6 -5 4 -9 1 -9
-5 0 -6 -16 -32 -35 -57 -19 -25 -35 -51 -35 -58 0 -6 -10 -11 -22 -10 -17 1
-23 8 -22 23 0 12 -3 22 -8 22 -5 0 -8 19 -7 43 1 23 -1 57 -5 75 -6 25 -4 33
8 38 22 8 21 44 -1 44 -17 1 -17 1 0 11 10 6 16 17 13 27 -3 9 -8 49 -11 87
-3 39 -7 87 -9 107 -2 21 0 38 4 38 8 0 5 49 -5 58 -3 3 5 12 17 19 13 8 16
12 8 10 -23 -6 -39 15 -30 39 12 30 11 126 -1 141 -6 7 -7 18 -3 24 11 19 13
149 2 149 -12 0 0 40 18 57 19 19 26 16 19 -9 -5 -18 -4 -20 4 -8 10 13 12 13
20 0 6 -8 13 -11 17 -7 4 4 -3 19 -17 33 -16 18 -20 28 -11 31 14 5 17 33 3
33 -11 0 -26 -20 -26 -34 0 -5 -6 -11 -12 -13 -9 -3 -13 7 -13 32 0 28 5 38
19 42 28 7 35 44 10 50 -14 4 -19 12 -16 24 3 11 1 21 -3 24 -5 3 -5 19 0 35
5 17 7 42 4 56 -3 18 -1 23 7 18 12 -7 12 -6 -11 85 -6 24 -9 50 -6 58 3 7 1
13 -4 13 -6 0 -10 4 -10 9 0 5 10 7 22 3 16 -4 19 -2 13 8 -4 7 -9 23 -11 34
-2 12 -6 36 -9 54 -5 25 -3 32 9 32 22 0 20 20 -1 20 -17 1 -17 1 0 14 23 18
22 46 -2 46 -23 0 -38 37 -22 53 8 8 11 4 11 -16 0 -15 4 -27 10 -27 12 0 11
108 0 115 -5 3 -6 33 -3 68 4 43 12 69 26 85 l20 22 -24 1 c-17 1 -19 3 -6 6
15 4 22 21 18 46 0 4 4 7 11 7 6 0 9 3 6 6 -4 3 -16 1 -27 -6 -17 -9 -21 -8
-21 5 0 8 5 15 10 15 6 0 10 7 10 15 0 8 -8 15 -17 15 -13 0 -14 3 -5 12 19
19 14 30 -10 23 -16 -4 -19 -4 -9 3 7 5 10 15 7 21 -11 17 17 9 31 -9 9 -12
11 -5 8 38 -2 28 1 52 6 52 5 0 9 5 9 10 0 6 -6 10 -14 10 -19 0 -28 28 -16
50 8 15 6 21 -7 30 -15 9 -12 10 14 5 17 -4 34 -2 38 4 4 7 0 8 -11 4 -13 -5
-16 -3 -11 10 4 11 2 14 -8 11 -11 -5 -12 1 -3 33 5 21 15 44 22 52 8 12 8 13
-1 7 -9 -5 -13 0 -13 18 0 41 -10 58 -26 45 -11 -9 -14 -8 -14 4 0 8 10 18 23
21 19 6 20 7 5 16 -17 10 -14 50 4 50 5 0 7 13 3 30 -5 23 -3 30 9 30 8 0 18
5 22 11 4 7 1 10 -7 7 -18 -6 -48 22 -42 39 3 8 10 10 17 5 10 -7 17 -8 43 -3
4 0 0 7 -9 14 -24 19 -30 47 -10 47 10 0 13 3 6 8 -6 4 -14 15 -17 26 -4 11
-13 16 -22 12 -17 -6 -18 -4 -9 18 3 9 10 13 15 10 13 -8 11 20 -3 34 -9 9 -9
15 0 24 9 9 12 9 12 -1 0 -7 5 -9 10 -6 7 4 7 11 2 18 -5 7 -17 39 -27 71 -15
50 -18 91 -16 263 2 162 0 203 -11 203 -11 0 -11 2 0 8 10 7 12 87 8 398 -2
214 -5 404 -5 422 -1 18 -5 31 -10 27 -13 -8 -19 27 -7 46 6 11 3 30 -10 62
-15 37 -21 43 -27 29 -5 -13 -6 -11 -3 6 5 27 -40 112 -60 112 -8 0 -14 5 -14
10 0 16 -42 70 -51 65 -4 -3 -10 2 -13 11 -3 8 -11 12 -17 8 -7 -4 -9 -3 -6 3
4 6 0 13 -8 17 -10 3 -15 -1 -15 -12 -1 -16 -1 -16 -14 1 -7 9 -19 17 -26 17
-8 0 -23 9 -35 20 -13 12 -29 18 -38 14 -21 -8 -21 -18 -1 -48 9 -15 11 -26 5
-30 -9 -6 -37 32 -33 46 1 3 -14 6 -34 6 -19 0 -40 4 -47 9 -6 5 -92 8 -191 7
-138 -1 -180 -5 -187 -15 -7 -11 -11 -10 -22 5 -8 11 -19 16 -26 12 -6 -4 -18
-2 -26 4 -11 9 -15 9 -15 1 0 -8 -6 -9 -17 -3 -19 10 -68 9 -115 -2 -16 -4
-28 -3 -28 1 0 5 -38 8 -84 8 -46 0 -82 -3 -79 -7 7 -13 -30 -9 -59 6 -25 13
-28 13 -33 -5 -9 -28 -38 -25 -30 4 5 17 4 18 -4 7 -7 -11 -33 -15 -101 -16
-50 0 -93 -4 -97 -8 -10 -10 -35 -7 -28 4 9 15 -12 12 -27 -3 -10 -12 -16 -11
-32 5 -24 22 -36 23 -36 3 0 -8 -7 -15 -16 -15 -8 0 -12 -5 -8 -11 3 -6 17 -9
30 -6 14 2 27 1 29 -4 8 -12 88 -8 104 5 11 8 13 8 8 -1 -6 -9 112 -12 494
-13 528 -1 563 -3 659 -48 66 -31 160 -123 194 -190 53 -105 50 48 51 -3017 0
-2282 -3 -2861 -13 -2905 -29 -124 -96 -221 -187 -268 -95 -50 -131 -55 -480
-61 -942 -19 -3745 -4 -3842 20 -78 19 -175 67 -216 107 -49 47 -73 93 -93
179 -15 62 -16 251 -10 2038 6 1993 12 2768 26 3440 7 344 9 374 29 430 13 37
18 61 11 63 -5 2 -7 8 -4 13 8 14 -4 59 -16 59 -6 0 -13 -14 -17 -30 -3 -17
-9 -33 -14 -36 -5 -3 -6 2 -3 10 4 9 1 16 -6 16 -13 0 -10 -38 5 -72 5 -13 3
-18 -8 -18 -9 0 -17 -10 -19 -22 -4 -27 -34 -31 -32 -5 2 14 -1 15 -12 6 -8
-6 -14 -8 -14 -4 0 4 -7 2 -16 -5 -8 -8 -14 -25 -12 -39 2 -14 -3 -31 -10 -36
-7 -6 -16 -41 -19 -81 -4 -58 -2 -72 12 -84 15 -13 20 -11 41 13 28 32 30 24
9 -27 -14 -33 -35 -49 -35 -26 0 6 -7 10 -15 10 -11 0 -15 -12 -15 -47 0 -62
9 -93 26 -93 20 0 17 -10 -6 -30 -13 -11 -17 -21 -10 -25 12 -7 14 -55 2 -55
-5 0 -9 -20 -10 -45 0 -32 4 -45 14 -45 8 0 14 -9 14 -21 0 -13 6 -20 18 -18
29 2 42 -1 42 -10 0 -5 -9 -7 -20 -4 -11 3 -20 1 -20 -5 0 -6 8 -13 18 -15 11
-3 8 -5 -9 -6 -22 -1 -26 -5 -21 -26 2 -14 8 -25 12 -25 4 0 6 -16 3 -35 -3
-28 0 -35 14 -35 17 -1 17 -1 1 -11 -14 -8 -17 -19 -13 -55 2 -25 7 -49 10
-55 4 -5 1 -9 -4 -9 -6 0 -11 -11 -11 -25 0 -14 4 -25 8 -25 5 0 6 -27 4 -60
-4 -53 -2 -60 14 -60 18 -1 18 -2 2 -14 -16 -12 -16 -14 0 -31 9 -10 12 -15 6
-12 -7 4 -11 -17 -11 -64 -1 -49 2 -67 10 -63 7 3 4 -1 -6 -9 -16 -13 -16 -18
-2 -56 8 -22 11 -41 6 -41 -4 0 -8 -27 -8 -60 0 -33 4 -60 9 -60 6 0 7 -11 4
-24 -4 -15 -1 -26 7 -30 8 -3 5 -11 -10 -24 -15 -13 -23 -32 -23 -51 0 -16 -4
-33 -10 -36 -18 -11 -10 -23 13 -18 l22 5 -24 -21 c-13 -12 -20 -21 -17 -21 4
0 4 -5 0 -12 -10 -16 -11 -89 -1 -95 4 -3 3 -11 -3 -18 -7 -8 -9 -19 -6 -24 4
-5 2 -12 -4 -16 -13 -8 -13 -25 0 -25 6 0 10 7 10 15 0 8 4 15 10 15 5 0 7 7
4 15 -4 8 -1 15 5 15 17 0 13 -22 -9 -55 -20 -31 -27 -71 -11 -60 5 3 12 1 16
-5 3 -5 -2 -10 -12 -11 -10 0 -13 -3 -5 -6 15 -6 16 -43 1 -43 -8 0 -9 -4 0
-13 6 -8 8 -17 4 -20 -12 -12 -11 -72 1 -92 14 -22 10 -98 -5 -103 -5 -2 -9
-23 -9 -47 0 -33 6 -50 22 -65 19 -17 21 -24 10 -40 -17 -28 -15 -40 6 -34 10
4 13 3 6 -3 -16 -11 -27 -70 -17 -85 4 -7 9 -35 10 -63 2 -27 3 -54 4 -60 1
-5 -2 -79 -6 -162 l-8 -153 24 0 23 0 -22 -16 c-23 -16 -30 -58 -11 -69 6 -4
7 -19 3 -38 -11 -47 -6 -130 9 -139 8 -5 8 -8 0 -8 -7 0 -11 -24 -10 -72 1
-40 -1 -86 -6 -103 -13 -51 -19 -219 -9 -246 6 -16 7 -31 0 -42 -5 -10 -10
-41 -10 -70 -1 -28 -5 -57 -10 -64 -6 -7 -5 -27 1 -50 14 -48 14 -76 1 -68 -6
4 -8 -5 -5 -22 12 -77 13 -102 4 -105 -5 -2 -10 -24 -12 -51 -1 -26 -4 -47 -7
-47 -3 0 -7 -8 -8 -17 -4 -41 -9 -63 -15 -69 -4 -4 -1 -17 7 -30 16 -24 12
-36 -10 -27 -12 5 -19 -13 -15 -39 0 -4 -6 -5 -14 -2 -8 4 -12 10 -9 15 3 5 1
9 -4 9 -15 0 -23 -29 -16 -56 5 -19 11 -23 33 -19 14 3 19 2 11 -1 -25 -11
-30 -28 -13 -42 12 -8 13 -12 3 -12 -10 0 -9 -4 3 -18 10 -10 17 -23 17 -28 0
-5 -4 -3 -9 4 -5 9 -10 0 -15 -28 -4 -25 -2 -47 4 -55 5 -6 8 -14 5 -16 -4 -5
-6 -47 -6 -159 0 -41 -2 -93 -4 -115 -2 -22 2 -46 8 -54 9 -11 14 -8 24 15 8
20 12 23 13 10 0 -10 -10 -30 -23 -45 -21 -25 -23 -38 -25 -179 -2 -91 0 -152
6 -152 5 0 12 -10 15 -22 5 -21 5 -21 -7 -6 -10 14 -13 2 -14 -75 0 -55 4 -97
10 -105 8 -10 9 -15 1 -20 -12 -8 -15 -172 -3 -172 4 0 20 -19 35 -42 23 -35
24 -39 7 -24 -12 11 -22 14 -22 8 0 -7 -8 -12 -17 -12 -10 0 -14 -4 -8 -8 6
-4 10 -31 11 -59 1 -59 19 -101 49 -114 19 -7 19 -8 -2 -8 -13 -1 -23 -6 -23
-12 0 -6 7 -9 15 -5 9 3 15 0 15 -9 0 -8 -5 -15 -11 -15 -5 0 -7 -5 -4 -10 4
-6 11 -7 17 -4 8 5 9 1 5 -10 -14 -35 108 -180 142 -169 12 4 13 2 3 -4 -9 -7
-1 -16 29 -32 22 -13 43 -20 46 -17 4 3 13 -3 20 -14 14 -20 14 -20 46 2 17
12 28 17 24 11 -4 -6 -3 -22 2 -35 8 -22 9 -21 16 11 6 29 9 32 17 17 5 -9 7
-23 4 -31 -9 -26 68 -35 104 -13 16 10 23 10 37 -5 16 -16 16 -17 -7 -19 -54
-3 -118 4 -175 18 -177 46 -339 213 -385 399 -9 38 -12 219 -11 735 2 616 0
690 -15 730 -9 25 -17 64 -18 87 0 24 -5 42 -11 40 -5 -1 -9 -4 -8 -7 1 -3 4
-14 8 -25 6 -20 6 -20 -7 -1 -34 51 -107 120 -162 153 -34 20 -71 45 -82 55
-12 10 -28 18 -35 16 -8 -2 -13 3 -11 11 2 8 -10 28 -26 45 -41 43 -77 110
-98 181 -17 56 -18 120 -15 940 1 484 6 908 12 941 25 166 107 285 255 372
137 80 208 188 224 338 15 138 13 1087 -2 1102 -8 8 -8 12 -1 12 5 0 13 31 16
70 10 121 36 161 209 330 106 104 170 158 208 177 62 30 72 31 765 33 944 4
1326 0 1319 -12 -6 -10 -5 -10 8 0 8 6 26 12 39 13 13 0 278 2 588 5 310 2
565 5 567 6 1 2 83 2 181 0 98 -2 321 -3 495 -2z m-4255 -494 c2 -16 -4 -26
-22 -34 -14 -6 -25 -17 -25 -24 0 -9 -3 -9 -12 0 -14 14 7 43 26 36 16 -6 29
23 15 31 -5 4 -7 11 -3 16 8 14 17 3 21 -25z m-60 -307 c-9 -13 -17 -16 -22
-10 -3 6 -1 11 4 11 6 0 11 12 11 28 1 23 2 24 11 9 7 -12 6 -23 -4 -38z m33
-229 c0 -5 -6 -10 -14 -10 -8 0 -18 5 -21 10 -3 6 3 10 14 10 12 0 21 -4 21
-10z m-291 -203 c8 -10 7 -18 -2 -31 -12 -16 -14 -16 -26 -2 -14 16 -9 46 7
46 5 0 15 -6 21 -13z m-192 -131 c-4 -9 -11 -16 -17 -16 -17 0 -24 31 -9 41
18 11 34 -5 26 -25z m73 9 c0 -19 -20 -29 -32 -17 -15 15 -2 43 17 36 8 -3 15
-12 15 -19z m5881 -12 c-12 -20 -14 -14 -5 12 4 9 9 14 11 11 3 -2 0 -13 -6
-23z m-6016 -53 c0 -8 -10 -16 -22 -18 -22 -3 -32 16 -16 32 12 11 38 2 38
-14z m63 -3 c2 -12 -3 -17 -17 -17 -12 0 -21 6 -21 13 0 31 32 34 38 4z m70 0
c2 -12 -3 -17 -17 -17 -15 0 -21 6 -21 21 0 25 33 22 38 -4z m2 -68 c0 -12 -7
-19 -20 -19 -19 0 -28 28 -14 43 11 11 34 -5 34 -24z m-135 1 c0 -22 -39 -19
-43 3 -3 15 1 18 20 15 12 -2 23 -10 23 -18z m65 0 c0 -13 -7 -20 -20 -20 -13
0 -20 7 -20 20 0 13 7 20 20 20 13 0 20 -7 20 -20z m5960 -15 c-7 -8 -17 -15
-22 -15 -11 0 14 29 26 30 5 0 3 -7 -4 -15z m40 -15 c0 -5 -5 -10 -11 -10 -5
0 -7 5 -4 10 3 6 8 10 11 10 2 0 4 -4 4 -10z m-6071 -24 c8 -10 8 -16 -2 -24
-17 -14 -42 2 -34 22 8 20 21 20 36 2z m68 -2 c8 -21 -13 -42 -28 -27 -13 13
-5 43 11 43 6 0 13 -7 17 -16z m73 -10 c0 -20 -30 -30 -40 -13 -11 17 7 40 26
32 8 -3 14 -12 14 -19z m5435 6 c3 -5 1 -10 -4 -10 -6 0 -11 5 -11 10 0 6 2
10 4 10 3 0 8 -4 11 -10z m-21 -53 c29 -20 34 -37 10 -37 -10 0 -14 -6 -10
-15 3 -8 1 -15 -4 -15 -6 0 -10 9 -10 19 0 11 -10 27 -22 36 -18 12 -20 17 -9
24 9 6 10 11 2 15 -6 4 -8 12 -5 18 5 7 10 4 15 -8 4 -11 19 -28 33 -37z
m-4964 33 c0 -5 -4 -10 -10 -10 -5 0 -10 5 -10 10 0 6 5 10 10 10 6 0 10 -4
10 -10z m-4170 -30 c0 -5 -5 -10 -11 -10 -5 0 -7 5 -4 10 3 6 8 10 11 10 2 0
4 -4 4 -10z m255 0 c3 -5 -3 -10 -14 -10 -12 0 -21 5 -21 10 0 6 6 10 14 10 8
0 18 -4 21 -10z m3328 -14 c7 -18 -1 -26 -25 -26 -18 0 -25 20 -11 33 11 12
31 8 36 -7z m67 -6 c0 -13 -7 -20 -20 -20 -13 0 -20 7 -20 20 0 13 7 20 20 20
13 0 20 -7 20 -20z m68 -3 c2 -11 -3 -17 -17 -17 -23 0 -35 15 -26 31 10 15
39 6 43 -14z m-138 -68 c0 -25 -33 -22 -38 4 -2 12 3 17 17 17 15 0 21 -6 21
-21z m70 0 c0 -25 -33 -22 -38 4 -2 12 3 17 17 17 15 0 21 -6 21 -21z m70 6
c0 -9 -7 -18 -16 -22 -18 -7 -39 11 -30 26 11 17 46 13 46 -4z m-2900 -49 c0
-2 -7 -6 -15 -10 -8 -3 -15 -1 -15 4 0 6 7 10 15 10 8 0 15 -2 15 -4z m2758
-19 c2 -12 -3 -17 -17 -17 -12 0 -21 6 -21 13 0 31 32 34 38 4z m69 7 c8 -20
-8 -36 -26 -25 -15 10 -8 41 9 41 6 0 13 -7 17 -16z m69 1 c3 -8 3 -19 -1 -25
-10 -16 -45 7 -39 25 8 19 33 19 40 0z m-4379 -17 c-3 -8 -6 -5 -6 6 -1 11 2
17 5 13 3 -3 4 -12 1 -19z m4243 -58 c0 -13 -7 -20 -20 -20 -19 0 -27 20 -13
33 13 14 33 6 33 -13z m68 -3 c2 -12 -3 -17 -17 -17 -15 0 -21 6 -21 21 0 25
33 22 38 -4z m72 8 c0 -9 -7 -18 -16 -22 -18 -7 -39 11 -30 26 11 17 46 13 46
-4z m-142 -72 c-4 -20 -18 -26 -37 -14 -18 12 -5 31 20 31 14 0 19 -6 17 -17z
m70 0 c-5 -26 -38 -29 -38 -4 0 15 6 21 21 21 14 0 19 -5 17 -17z m68 6 c3 -6
2 -15 -3 -20 -13 -13 -43 -1 -43 17 0 16 36 19 46 3z m-138 -72 c2 -12 -3 -17
-17 -17 -12 0 -21 6 -21 13 0 31 32 34 38 4z m70 0 c2 -12 -3 -17 -17 -17 -15
0 -21 6 -21 21 0 25 33 22 38 -4z m70 6 c5 -17 -26 -29 -40 -15 -6 6 -7 15 -3
22 9 14 37 9 43 -7z m-140 -76 c2 -11 -3 -17 -17 -17 -23 0 -35 15 -26 31 10
15 39 6 43 -14z m70 0 c2 -12 -3 -17 -17 -17 -15 0 -21 6 -21 21 0 25 33 22
38 -4z m70 6 c5 -17 -26 -29 -40 -15 -6 6 -7 15 -3 22 9 14 37 9 43 -7z
m-4378 -13 c0 -5 -9 -10 -20 -10 -11 0 -20 5 -20 10 0 6 9 10 20 10 11 0 20
-4 20 -10z m9885 -20 c3 -5 -3 -10 -14 -10 -12 0 -21 5 -21 10 0 6 6 10 14 10
8 0 18 -4 21 -10z m-9885 -20 c0 -5 -9 -10 -20 -10 -11 0 -20 5 -20 10 0 6 9
10 20 10 11 0 20 -4 20 -10z m4220 -160 c0 -5 -5 -10 -11 -10 -5 0 -7 5 -4 10
3 6 8 10 11 10 2 0 4 -4 4 -10z m8860 -96 c0 -8 -4 -12 -10 -9 -5 3 -10 10
-10 16 0 5 5 9 10 9 6 0 10 -7 10 -16z m-3264 -10 c-3 -9 -6 -29 -6 -45 0 -18
-4 -28 -10 -24 -5 3 -10 24 -10 46 0 29 4 39 16 39 11 0 14 -5 10 -16z m29
-14 c-5 -14 -2 -20 9 -20 9 0 16 -4 16 -10 0 -13 -6 -13 -31 0 -16 9 -17 14
-6 30 15 26 20 25 12 0z m3232 -42 c-3 -8 -6 -5 -6 6 -1 11 2 17 5 13 3 -3 4
-12 1 -19z m16 -84 c3 -4 1 -16 -4 -27 -9 -16 -13 -17 -20 -6 -13 21 -11 39 4
39 8 0 17 -3 20 -6z m-12 -95 c-22 -9 -25 -4 -10 22 12 23 12 23 19 4 5 -14 2
-22 -9 -26z m-3214 -41 c-3 -8 -6 -5 -6 6 -1 11 2 17 5 13 3 -3 4 -12 1 -19z
m-17 2 c0 -5 -7 -10 -16 -10 -8 0 -12 5 -9 10 3 6 10 10 16 10 5 0 9 -4 9 -10z
m-40 -310 c0 -5 -7 -10 -15 -10 -8 0 -15 5 -15 10 0 6 7 10 15 10 8 0 15 -4
15 -10z m27 -32 c-3 -7 -5 -2 -5 12 0 14 2 19 5 13 2 -7 2 -19 0 -25z m-27
-268 c0 -5 -5 -10 -11 -10 -5 0 -7 5 -4 10 3 6 8 10 11 10 2 0 4 -4 4 -10z
m20 -495 c0 -8 -2 -15 -4 -15 -2 0 -6 7 -10 15 -3 8 -1 15 4 15 6 0 10 -7 10
-15z m0 -111 c0 -14 -4 -23 -9 -20 -5 3 -7 15 -4 26 7 28 13 25 13 -6z m1450
11 c0 -16 -17 -19 -45 -9 -13 5 -14 8 -3 15 21 14 48 10 48 -6z m560 -265 c0
-5 -4 -10 -10 -10 -5 0 -10 5 -10 10 0 6 5 10 10 10 6 0 10 -4 10 -10z m-45
-20 c-3 -5 -13 -10 -21 -10 -8 0 -14 5 -14 10 0 6 9 10 21 10 11 0 17 -4 14
-10z m315 -30 c0 -22 -4 -40 -10 -40 -5 0 -10 18 -10 40 0 22 5 40 10 40 6 0
10 -18 10 -40z m-270 4 c0 -8 -5 -12 -10 -9 -6 4 -8 11 -5 16 9 14 15 11 15
-7z m240 -4 c0 -11 -7 -20 -15 -20 -17 0 -18 2 -9 24 9 23 24 20 24 -4z m-140
-50 c0 -5 -9 -10 -20 -10 -11 0 -23 0 -27 -1 -4 0 -9 4 -11 10 -2 6 10 11 27
11 17 0 31 -4 31 -10z m50 -4 c0 -21 -21 -31 -31 -15 -14 22 -11 29 11 29 11
0 20 -6 20 -14z m60 10 c0 -11 -19 -15 -25 -6 -3 5 1 10 9 10 9 0 16 -2 16 -4z
m30 -26 c0 -5 -4 -10 -10 -10 -5 0 -10 5 -10 10 0 6 5 10 10 10 6 0 10 -4 10
-10z m-40 -20 c0 -5 -7 -10 -15 -10 -8 0 -15 -5 -15 -12 0 -6 -3 -8 -6 -5 -8
8 14 37 27 37 5 0 9 -4 9 -10z m30 -30 c-8 -5 -22 -9 -30 -9 -10 0 -8 3 5 9
27 12 43 12 25 0z m90 -26 c0 -33 -33 -30 -38 4 -3 17 2 22 17 22 16 0 21 -6
21 -26z m-1819 -81 c-8 -15 -10 -15 -11 -2 0 17 10 32 18 25 2 -3 -1 -13 -7
-23z m131 -3 c-2 -16 -6 -30 -8 -30 -2 0 -4 14 -4 30 0 17 4 30 8 30 5 0 7
-13 4 -30z m1788 23 c0 -5 -5 -15 -10 -23 -8 -12 -10 -11 -10 8 0 12 5 22 10
22 6 0 10 -3 10 -7z m-1780 -93 c0 -5 -5 -10 -11 -10 -5 0 -7 5 -4 10 3 6 8
10 11 10 2 0 4 -4 4 -10z m1839 -32 c0 -27 -2 -29 -8 -13 -5 11 -6 26 -4 33 8
21 13 13 12 -20z m-7479 -278 c0 -5 -4 -10 -10 -10 -5 0 -10 5 -10 10 0 6 5
10 10 10 6 0 10 -4 10 -10z m5060 -136 c-6 -14 -11 -40 -11 -57 -1 -26 -3 -27
-6 -8 -6 31 5 91 17 91 6 0 6 -10 0 -26z m-37 -19 c-3 -9 -8 -14 -10 -11 -3 3
-2 9 2 15 9 16 15 13 8 -4z m-5133 1 c0 -3 -4 -8 -10 -11 -5 -3 -10 -1 -10 4
0 6 5 11 10 11 6 0 10 -2 10 -4z m5586 -47 c7 -12 -15 -31 -28 -23 -9 6 1 34
12 34 5 0 12 -5 16 -11z m74 -3 c0 -8 -5 -18 -11 -22 -14 -8 -33 11 -25 25 10
16 36 13 36 -3z m-5873 -40 c33 6 33 6 33 -35 l0 -41 -72 0 c-40 0 -82 -3 -94
-6 -18 -5 -20 -1 -20 36 1 50 15 60 74 48 25 -4 61 -5 79 -2z m213 -21 c0 -8
-2 -15 -4 -15 -2 0 -6 7 -10 15 -3 8 -1 15 4 15 6 0 10 -7 10 -15z m5590 -10
c0 -8 -7 -15 -15 -15 -8 0 -15 7 -15 15 0 8 7 15 15 15 8 0 15 -7 15 -15z m70
1 c0 -8 -4 -17 -8 -20 -13 -8 -35 11 -28 23 10 16 36 14 36 -3z m-535 -52 c5
-37 4 -38 -9 -15 -7 13 -11 33 -8 43 6 26 13 17 17 -28z m533 -17 c2 -12 -3
-17 -17 -17 -12 0 -21 6 -21 13 0 31 32 34 38 4z m-68 -2 c0 -8 -7 -15 -15
-15 -8 0 -15 7 -15 15 0 8 7 15 15 15 8 0 15 -7 15 -15z m1997 -37 c-3 -8 -6
-5 -6 6 -1 11 2 17 5 13 3 -3 4 -12 1 -19z m-2434 -18 c-3 -11 -7 -20 -9 -20
-2 0 -4 9 -4 20 0 11 4 20 9 20 5 0 7 -9 4 -20z m437 -10 c0 -11 -7 -20 -15
-20 -15 0 -21 21 -8 33 12 13 23 7 23 -13z m70 0 c0 -11 -6 -20 -14 -20 -18 0
-29 16 -21 30 11 18 35 11 35 -10z m-549 -17 c-8 -15 -10 -15 -11 -2 0 17 10
32 18 25 2 -3 -1 -13 -7 -23z m-5116 -33 c-3 -5 -10 -10 -16 -10 -5 0 -9 5 -9
10 0 6 7 10 16 10 8 0 12 -4 9 -10z m5598 -7 c9 -9 -13 -34 -24 -27 -14 8 -11
34 4 34 8 0 17 -3 20 -7z m67 -13 c0 -21 -24 -28 -35 -10 -8 14 3 30 21 30 8
0 14 -9 14 -20z m-515 0 c-3 -5 -10 -10 -16 -10 -5 0 -9 5 -9 10 0 6 7 10 16
10 8 0 12 -4 9 -10z m2426 -17 c-8 -15 -10 -15 -11 -2 0 17 10 32 18 25 2 -3
-1 -13 -7 -23z m-7571 -12 c0 -6 -4 -13 -10 -16 -5 -3 -10 1 -10 9 0 9 5 16
10 16 6 0 10 -4 10 -9z m5160 -9 c0 -10 -3 -21 -6 -24 -10 -10 -42 4 -49 20
-5 14 -4 15 6 5 17 -17 29 -16 29 2 0 8 5 15 10 15 6 0 10 -8 10 -18z m-5326
-11 c-4 -9 -9 -25 -11 -37 -4 -19 -12 -21 -85 -23 -44 0 -84 -4 -89 -7 -5 -3
-9 5 -9 18 0 13 -3 33 -6 46 l-7 23 107 -2 c93 -2 106 -4 100 -18z m5756 -16
c0 -8 -7 -15 -15 -15 -8 0 -15 7 -15 15 0 8 7 15 15 15 8 0 15 -7 15 -15z m70
0 c0 -8 -7 -15 -15 -15 -8 0 -15 7 -15 15 0 8 7 15 15 15 8 0 15 -7 15 -15z
m-555 -5 c3 -5 -1 -10 -9 -10 -9 0 -16 5 -16 10 0 6 4 10 9 10 6 0 13 -4 16
-10z m55 -40 c0 -16 -4 -30 -9 -30 -5 0 -9 14 -9 30 1 17 5 30 10 30 4 0 8
-13 8 -30z m-5136 -1 c-3 -5 -10 -7 -15 -3 -5 3 -7 10 -3 15 3 5 10 7 15 3 5
-3 7 -10 3 -15z m5636 -14 c10 -12 9 -16 -5 -21 -19 -8 -40 9 -31 25 10 15 21
14 36 -4z m-67 -10 c1 -5 -6 -11 -15 -13 -11 -2 -18 3 -18 13 0 17 30 18 33 0z
m-463 -23 c0 -15 -2 -15 -10 -2 -13 20 -13 33 0 25 6 -3 10 -14 10 -23z m2272
10 c-16 -5 -15 -33 3 -55 11 -16 11 -21 -3 -38 -20 -23 -32 -24 -32 -4 0 8 5
15 10 15 15 0 12 28 -6 55 -15 23 -15 25 0 25 9 0 16 5 16 11 0 5 5 7 12 3 9
-6 9 -9 0 -12z m-52 -18 c0 -16 -6 -16 -35 -4 -18 8 -18 9 -2 9 10 1 15 5 12
11 -3 6 1 7 9 4 9 -3 16 -12 16 -20z m-2190 -76 c0 -64 -3 -88 -10 -78 -16 25
-11 170 6 170 2 0 4 -42 4 -92z m430 42 c0 -11 -7 -20 -15 -20 -15 0 -21 21
-8 33 12 13 23 7 23 -13z m70 0 c0 -11 -6 -20 -13 -20 -19 0 -27 10 -20 26 8
21 33 17 33 -6z m1673 3 c-13 -2 -33 -2 -45 0 -13 2 -3 4 22 4 25 0 35 -2 23
-4z m15 -38 c11 -10 -8 -18 -20 -7 -7 5 -22 12 -33 15 -11 2 -5 3 14 1 18 -2
36 -6 39 -9z m-7333 -25 c-5 -8 -11 -8 -17 -2 -6 6 -7 16 -3 22 5 8 11 8 17 2
6 -6 7 -16 3 -22z m7495 22 c0 -4 -5 -13 -12 -20 -9 -9 -9 -15 0 -24 7 -7 12
-18 12 -26 0 -18 -29 -46 -38 -37 -4 4 -1 10 6 12 19 7 14 40 -8 46 -11 3 -20
10 -20 17 0 7 9 14 20 17 11 3 20 9 20 14 0 5 5 9 10 9 6 0 10 -4 10 -8z
m-1912 -29 c2 -8 -5 -13 -17 -13 -12 0 -21 6 -21 16 0 18 31 15 38 -3z m62 4
c0 -8 -3 -17 -7 -20 -9 -9 -34 13 -27 24 8 14 34 11 34 -4z m1617 -9 c-3 -8
-6 -5 -6 6 -1 11 2 17 5 13 3 -3 4 -12 1 -19z m98 -18 c7 -22 31 -27 37 -8 3
7 9 8 18 3 21 -13 -26 -27 -66 -19 -38 7 -39 9 -21 29 17 20 25 18 32 -5z
m-7535 -16 c0 -2 -4 -12 -9 -22 -5 -9 -12 -25 -15 -34 -4 -15 -17 -18 -73 -18
-37 0 -77 -3 -88 -6 -18 -4 -20 0 -21 41 l-1 46 104 -2 c56 -1 103 -3 103 -5z
m190 2 c0 -3 -4 -8 -10 -11 -5 -3 -10 -1 -10 4 0 6 5 11 10 11 6 0 10 -2 10
-4z m5630 -32 c0 -14 -21 -19 -33 -7 -9 9 13 34 24 27 5 -3 9 -12 9 -20z m-62
-1 c2 -8 -5 -13 -17 -13 -12 0 -21 6 -21 16 0 18 31 15 38 -3z m-5548 -3 c0
-5 -5 -10 -11 -10 -5 0 -7 5 -4 10 3 6 8 10 11 10 2 0 4 -4 4 -10z m5106 -37
c-10 -10 -19 5 -10 18 6 11 8 11 12 0 2 -7 1 -15 -2 -18z m-5167 -16 c-7 -15
-8 -34 -4 -44 14 -31 15 -53 4 -53 -5 0 -8 4 -5 9 4 5 1 11 -6 13 -7 3 -13 22
-13 45 0 23 3 39 6 37 4 -2 10 3 13 12 4 9 9 15 12 12 2 -3 -1 -17 -7 -31z
m5111 18 c0 -8 -4 -15 -10 -15 -5 0 -10 7 -10 15 0 8 5 15 10 15 6 0 10 -7 10
-15z m494 -36 c-8 -14 -34 -11 -34 4 0 8 3 17 7 20 9 9 34 -13 27 -24z m65 18
c12 -15 5 -27 -16 -27 -7 0 -13 9 -13 20 0 23 13 26 29 7z m-6159 -16 c0 -5
-9 -7 -20 -4 -11 3 -20 7 -20 9 0 2 9 4 20 4 11 0 20 -4 20 -9z m510 -7 c0 -8
-5 -12 -10 -9 -6 4 -8 11 -5 16 9 14 15 11 15 -7z m5147 -91 c-2 -16 -4 -5 -4
22 0 28 2 40 4 28 2 -13 2 -35 0 -50z m439 28 c-10 -16 -36 -13 -36 3 0 17 21
27 34 16 4 -5 5 -13 2 -19z m69 9 c0 -8 -8 -16 -17 -18 -13 -2 -18 3 -18 18 0
15 5 20 18 18 9 -2 17 -10 17 -18z m-5615 -4 c0 -3 -4 -8 -10 -11 -5 -3 -10
-1 -10 4 0 6 5 11 10 11 6 0 10 -2 10 -4z m15 -36 c3 -5 1 -10 -4 -10 -6 0
-11 5 -11 10 0 6 2 10 4 10 3 0 8 -4 11 -10z m-65 -10 c0 -5 -4 -10 -10 -10
-5 0 -10 5 -10 10 0 6 5 10 10 10 6 0 10 -4 10 -10z m5157 -42 c-3 -8 -6 -5
-6 6 -1 11 2 17 5 13 3 -3 4 -12 1 -19z m-5317 -19 c0 -4 -4 -11 -10 -14 -5
-3 -10 -17 -10 -31 0 -19 -5 -24 -25 -24 -14 0 -25 6 -25 13 0 8 -2 9 -8 1 -4
-6 -35 -13 -69 -16 l-61 -4 1 43 0 44 104 -2 c56 -1 103 -5 103 -10z m170 -39
c0 -5 -8 -10 -17 -10 -15 0 -16 2 -3 10 19 12 20 12 20 0z m5149 -222 c-2
-237 -4 -272 -21 -262 -5 3 -6 14 -3 25 4 13 2 19 -9 19 -22 0 -20 18 1 22 19
4 19 -2 22 291 0 75 4 137 7 137 3 0 4 -104 3 -232z m-5179 166 c0 -8 -4 -12
-10 -9 -5 3 -10 10 -10 16 0 5 5 9 10 9 6 0 10 -7 10 -16z m36 -34 c0 -13 -4
-16 -10 -10 -6 6 -19 10 -30 11 -18 1 -17 2 4 9 14 4 27 8 30 9 3 1 6 -8 6
-19z m-11 -72 c-4 -9 -15 -18 -26 -21 -17 -4 -19 -2 -13 16 4 12 12 25 18 29
15 10 28 -5 21 -24z m36 4 c-6 -2 -9 -8 -5 -13 3 -5 0 -9 -5 -9 -15 0 -14 37
2 43 6 2 14 -1 16 -6 2 -6 -1 -13 -8 -15z m-23 -69 c16 -16 16 -16 -1 -10 -10
4 -23 7 -28 7 -5 0 -9 5 -9 10 0 15 20 12 38 -7z m-10 -50 c-9 -10 -13 -25
-11 -33 2 -9 0 -8 -7 3 -15 23 -6 47 16 47 15 0 16 -2 2 -17z m5813 -78 c5 4
9 -6 9 -20 0 -16 -4 -24 -11 -20 -6 4 -10 1 -8 -6 4 -36 -2 -59 -17 -59 -11 0
-14 5 -9 18 4 9 10 40 13 67 3 28 8 42 10 32 2 -9 8 -15 13 -12z m-5771 -5 c0
-5 7 -7 15 -4 9 4 15 0 15 -10 0 -22 -23 -20 -38 4 -7 12 -8 20 -2 20 5 0 10
-4 10 -10z m-4 -65 c-3 -8 -1 -15 4 -15 6 0 10 -5 10 -12 0 -8 -6 -7 -16 4 -9
9 -13 21 -10 27 10 16 19 13 12 -4z m9 -55 c3 -6 -1 -7 -9 -4 -18 7 -21 14 -7
14 6 0 13 -4 16 -10z m-44 -33 c-13 -13 -26 -3 -16 12 3 6 11 8 17 5 6 -4 6
-10 -1 -17z m59 -8 c0 -14 -17 -10 -23 5 -4 10 -1 13 9 9 7 -3 14 -9 14 -14z
m7 -35 c-3 -3 -12 -4 -19 -1 -8 3 -5 6 6 6 11 1 17 -2 13 -5z m26 -34 c-3 -11
-7 -20 -9 -20 -2 0 -4 9 -4 20 0 11 4 20 9 20 5 0 7 -9 4 -20z m4969 -45 c6
-28 -6 -34 -16 -9 -8 22 -7 34 3 34 5 0 11 -11 13 -25z m-4842 -156 c-11 -20
-30 -26 -30 -9 0 6 7 13 15 16 8 4 12 11 8 17 -3 6 -1 7 5 3 9 -5 9 -13 2 -27z
m1190 -43 c0 -3 -4 -8 -10 -11 -5 -3 -10 -1 -10 4 0 6 5 11 10 11 6 0 10 -2
10 -4z m-940 -37 c0 -5 -4 -9 -10 -9 -5 0 -10 7 -10 16 0 8 5 12 10 9 6 -3 10
-10 10 -16z m1073 -30 c-8 -8 -13 -8 -17 0 -4 6 -2 11 4 11 6 0 8 6 4 13 -6
10 -4 10 7 0 9 -10 10 -16 2 -24z m1095 6 c-3 -3 -9 2 -12 12 -6 14 -5 15 5 6
7 -7 10 -15 7 -18z m-938 5 c0 -5 -4 -10 -10 -10 -5 0 -10 5 -10 10 0 6 5 10
10 10 6 0 10 -4 10 -10z m1006 -28 c-10 -10 -29 15 -21 28 6 9 10 8 17 -4 6
-10 7 -20 4 -24z m-2027 14 c7 -8 21 -12 31 -9 11 3 20 0 20 -6 0 -20 -58 -13
-70 9 -12 23 2 27 19 6z m405 -1 c3 -9 0 -15 -9 -15 -9 0 -12 6 -9 15 4 8 7
15 9 15 2 0 5 -7 9 -15z m46 5 c0 -5 -7 -7 -15 -4 -8 4 -15 8 -15 10 0 2 7 4
15 4 8 0 15 -4 15 -10z m-373 -22 c-3 -8 -6 -5 -6 6 -1 11 2 17 5 13 3 -3 4
-12 1 -19z m133 12 c0 -5 -5 -10 -11 -10 -5 0 -7 5 -4 10 3 6 8 10 11 10 2 0
4 -4 4 -10z m120 -11 c0 -5 -7 -9 -15 -9 -8 0 -15 7 -15 15 0 9 6 12 15 9 8
-4 15 -10 15 -15z m900 11 c17 -11 15 -12 -40 -12 -59 0 -67 2 -45 12 27 12
67 12 85 0z m60 0 c0 -5 -5 -10 -11 -10 -5 0 -7 5 -4 10 3 6 8 10 11 10 2 0 4
-4 4 -10z m-1380 -10 c0 -5 -4 -10 -10 -10 -5 0 -10 5 -10 10 0 6 5 10 10 10
6 0 10 -4 10 -10z m50 0 c12 -8 9 -10 -12 -10 -16 0 -28 5 -28 10 0 13 20 13
40 0z m2317 4 c-3 -3 -12 -4 -19 -1 -8 3 -5 6 6 6 11 1 17 -2 13 -5z m1821
-167 c1 -4 2 -22 2 -40 l0 -32 -99 -1 -99 -1 -4 38 -3 38 85 3 c108 4 114 4
118 -5z m-1263 -27 c13 -19 29 -30 45 -31 23 -1 23 -2 -5 -9 l-30 -8 28 -1
c35 -1 61 23 55 52 -4 19 0 23 23 25 26 2 28 0 25 -35 -3 -44 2 -65 15 -57 5
3 9 0 9 -6 0 -13 -52 -2 -62 14 -5 7 -8 7 -8 -2 0 -10 -18 -13 -75 -10 -41 2
-75 0 -75 -4 0 -5 -5 -8 -12 -8 -9 0 -9 3 0 12 7 7 12 28 12 48 0 59 23 68 55
20z m280 -10 c0 -31 -3 -35 -29 -38 -26 -3 -28 -1 -22 22 3 13 2 28 -4 31 -21
13 -9 26 23 23 29 -3 32 -6 32 -38z m129 24 c3 -9 4 -20 1 -24 -3 -5 -1 -11 5
-15 20 -12 10 -25 -20 -25 -28 0 -30 2 -30 40 0 33 4 40 19 40 10 0 22 -7 25
-16z m142 1 c4 -8 12 -15 20 -15 8 0 14 -7 14 -15 0 -9 10 -15 23 -16 29 -2
-48 -18 -88 -18 -28 -1 -30 2 -31 37 -2 35 0 38 27 40 19 2 32 -3 35 -13z
m119 -12 c1 -11 7 -28 15 -38 13 -15 11 -16 -16 -13 -30 3 -43 31 -30 65 8 21
31 11 31 -14z m-45 -7 c0 -3 -4 -8 -10 -11 -5 -3 -10 -1 -10 4 0 6 5 11 10 11
6 0 10 -2 10 -4z m-546 -17 c-4 -7 -44 0 -44 7 0 2 11 3 24 2 14 -1 23 -5 20
-9z m-4064 -154 l55 -56 -60 3 -60 3 -3 53 c-2 28 1 52 5 52 5 0 33 -25 63
-55z m4130 9 c0 -14 -21 -19 -33 -7 -9 9 13 34 24 27 5 -3 9 -12 9 -20z m1977
10 c8 -22 -10 -49 -32 -49 -10 0 -22 7 -28 16 -15 24 -1 49 28 49 15 0 28 -7
32 -16z m-2657 -9 c0 -8 -6 -15 -14 -15 -17 0 -28 14 -19 24 12 12 33 6 33 -9z
m70 0 c0 -8 -9 -15 -20 -15 -20 0 -26 11 -13 23 12 13 33 7 33 -8z m70 0 c0
-8 -9 -15 -20 -15 -11 0 -20 7 -20 15 0 8 9 15 20 15 11 0 20 -7 20 -15z m70
1 c0 -15 -24 -28 -34 -19 -13 14 -5 33 14 33 11 0 20 -6 20 -14z m66 3 c7 -12
-15 -31 -28 -23 -4 3 -8 12 -8 20 0 17 26 19 36 3z m64 -4 c0 -8 -6 -15 -14
-15 -17 0 -28 14 -19 24 12 12 33 6 33 -9z m70 0 c0 -8 -9 -15 -20 -15 -11 0
-20 7 -20 15 0 8 9 15 20 15 11 0 20 -7 20 -15z m70 1 c0 -15 -24 -28 -34 -19
-13 14 -5 33 14 33 11 0 20 -6 20 -14z m70 -1 c0 -8 -9 -15 -20 -15 -11 0 -20
7 -20 15 0 8 9 15 20 15 11 0 20 -7 20 -15z m68 -2 c2 -8 -5 -13 -17 -13 -12
0 -21 6 -21 16 0 18 31 15 38 -3z m132 2 c0 -8 -9 -15 -20 -15 -20 0 -26 11
-13 23 12 13 33 7 33 -8z m683 -12 c-7 -2 -21 -2 -30 0 -10 3 -4 5 12 5 17 0
24 -2 18 -5z m-73 -17 c0 -2 -12 -11 -27 -20 l-28 -17 24 20 c23 21 31 25 31
17z m113 -13 c-7 -2 -21 -2 -30 0 -10 3 -4 5 12 5 17 0 24 -2 18 -5z m137 -60
c0 -7 3 -12 8 -12 19 3 25 -2 12 -11 -12 -8 -11 -10 7 -10 12 0 23 6 26 13 3
9 7 9 20 -2 11 -9 17 -10 17 -2 0 6 16 11 35 11 19 0 35 -4 35 -10 0 -14 27
-12 34 3 5 10 7 10 12 0 3 -7 12 -13 20 -13 9 0 12 5 9 10 -3 6 0 10 9 10 8 0
17 -6 20 -12 5 -10 7 -10 12 0 7 15 46 16 62 0 9 -9 12 -9 12 0 0 7 7 12 16
12 8 0 12 -5 9 -10 -4 -7 2 -9 17 -5 113 28 205 42 226 34 32 -12 36 -11 22 6
-7 9 -8 15 -2 15 5 0 13 -7 16 -16 4 -11 10 -13 23 -5 11 6 24 6 35 0 10 -5
28 -9 41 -7 12 1 65 -2 117 -7 l95 -10 -55 -6 c-49 -6 -47 -7 23 -5 42 1 77
-2 77 -6 0 -5 -79 -8 -176 -8 -114 0 -173 3 -169 10 8 13 -8 13 -21 0 -5 -5
-138 -11 -326 -12 l-317 -3 -6 25 c-4 14 -18 41 -32 60 l-26 35 31 -29 c18
-17 32 -36 32 -43z m-1400 31 c0 -8 -9 -14 -20 -14 -19 0 -27 19 -14 33 10 9
34 -4 34 -19z m64 -5 c-8 -14 -34 -11 -34 4 0 8 3 17 7 20 9 9 34 -13 27 -24z
m66 5 c0 -14 -21 -19 -33 -7 -9 9 13 34 24 27 5 -3 9 -12 9 -20z m67 11 c7
-20 -2 -29 -21 -22 -9 4 -13 13 -10 22 8 19 23 19 31 0z m143 -6 c0 -12 -29
-24 -37 -16 -3 4 -3 13 0 21 6 16 37 11 37 -5z m64 -10 c-8 -14 -34 -11 -34 4
0 8 3 17 7 20 9 9 34 -13 27 -24z m66 5 c0 -14 -21 -19 -33 -7 -9 9 13 34 24
27 5 -3 9 -12 9 -20z m-680 1 c0 -8 -7 -15 -15 -15 -8 0 -15 7 -15 15 0 8 7
15 15 15 8 0 15 -7 15 -15z m70 0 c0 -8 -9 -15 -20 -15 -20 0 -26 11 -13 23
12 13 33 7 33 -8z m70 0 c0 -8 -9 -15 -20 -15 -11 0 -20 7 -20 15 0 8 9 15 20
15 11 0 20 -7 20 -15z m340 0 c0 -8 -9 -15 -20 -15 -11 0 -20 7 -20 15 0 8 9
15 20 15 11 0 20 -7 20 -15z m270 0 c0 -8 -6 -15 -14 -15 -17 0 -28 14 -19 24
12 12 33 6 33 -9z m542 -38 c-6 -12 -12 -26 -14 -32 -2 -6 -64 -8 -173 -5 -93
3 -145 7 -115 10 30 2 105 2 166 1 l111 -2 13 31 c7 17 15 28 18 25 3 -3 0
-15 -6 -28z m-2566 -19 c4 -21 6 -22 12 -7 6 14 9 14 27 -4 19 -19 19 -20 1
-13 -10 3 -24 2 -31 -4 -10 -8 -14 -4 -19 14 -3 13 -9 32 -12 43 -5 15 -4 15
7 -2 8 -11 14 -23 15 -27z m897 35 c4 -3 -2 -13 -13 -20 -11 -8 -18 -19 -14
-24 4 -6 11 -6 20 2 9 7 14 8 14 1 0 -21 -43 -25 -57 -6 -12 16 -11 19 7 26
11 4 20 12 20 18 0 11 13 13 23 3z m1177 -34 c0 -4 24 -10 53 -12 28 -2 -17
-4 -102 -5 -85 -1 -151 1 -148 5 4 3 41 5 82 5 43 -1 74 2 70 7 -6 11 15 20
33 13 6 -2 12 -8 12 -13z m-3765 -9 c19 0 37 -5 40 -11 5 -7 -8 -9 -36 -7 -35
2 -44 7 -46 23 -2 11 0 14 3 8 3 -7 21 -13 39 -13z m-255 -9 c0 -4 -19 -6 -42
-5 -74 3 -85 7 -33 13 52 7 75 4 75 -8z m494 -2 c-8 -14 -34 -10 -34 5 0 9 7
12 20 9 11 -3 17 -9 14 -14z m394 7 c47 3 72 2 72 -5 0 -14 -157 -15 -165 -1
-4 6 -11 7 -17 4 -7 -4 -8 -2 -4 4 5 8 13 9 25 3 9 -5 49 -7 89 -5z m1587 -1
c6 -2 -29 -4 -77 -4 -49 -1 -88 3 -88 7 0 8 141 5 165 -3z m-2401 -6 c-3 -5
-20 -9 -37 -9 -18 0 -27 4 -20 8 16 10 64 11 57 1z m56 1 c0 -5 -7 -10 -15
-10 -8 0 -15 5 -15 10 0 6 7 10 15 10 8 0 15 -4 15 -10z m68 -5 c10 -9 -33 -5
-48 5 -11 8 -8 9 14 6 16 -3 31 -8 34 -11z m412 5 c0 -5 -7 -10 -16 -10 -8 0
-12 5 -9 10 3 6 10 10 16 10 5 0 9 -4 9 -10z m65 0 c3 -5 -1 -10 -10 -10 -9 0
-13 5 -10 10 3 6 8 10 10 10 2 0 7 -4 10 -10z m75 0 c12 -8 9 -10 -12 -10 -16
0 -28 5 -28 10 0 13 20 13 40 0z m300 0 c-20 -13 -67 -13 -75 0 -4 6 12 10 42
10 35 0 44 -3 33 -10z m566 3 c-10 -10 -46 -11 -40 -1 3 4 15 8 26 8 12 0 18
-3 14 -7z m644 -3 c-8 -5 -28 -10 -45 -10 -23 0 -27 3 -15 10 8 5 29 10 45 10
23 0 27 -3 15 -10z m273 3 c-7 -2 -19 -2 -25 0 -7 3 -2 5 12 5 14 0 19 -2 13
-5z m205 0 c-27 -2 -69 -2 -95 0 -27 2 -5 3 47 3 52 0 74 -1 48 -3z m180 0
c-10 -2 -28 -2 -40 0 -13 2 -5 4 17 4 22 1 32 -1 23 -4z m80 0 c-10 -2 -28 -2
-40 0 -13 2 -5 4 17 4 22 1 32 -1 23 -4z m85 0 c-13 -2 -33 -2 -45 0 -13 2 -3
4 22 4 25 0 35 -2 23 -4z m205 0 c-10 -2 -28 -2 -40 0 -13 2 -5 4 17 4 22 1
32 -1 23 -4z m105 0 c-13 -2 -35 -2 -50 0 -16 2 -5 4 22 4 28 0 40 -2 28 -4z
m90 0 c-7 -2 -21 -2 -30 0 -10 3 -4 5 12 5 17 0 24 -2 18 -5z m140 0 c-24 -2
-62 -2 -85 0 -24 2 -5 4 42 4 47 0 66 -2 43 -4z m105 0 c-10 -2 -26 -2 -35 0
-10 3 -2 5 17 5 19 0 27 -2 18 -5z m-3301 -9 c-3 -3 -12 -4 -19 -1 -8 3 -5 6
6 6 11 1 17 -2 13 -5z m1086 -1 c-7 -2 -19 -2 -25 0 -7 3 -2 5 12 5 14 0 19
-2 13 -5z"/>
<path d="M11266 6815 c-9 -25 -7 -195 2 -195 5 0 8 -10 8 -22 -1 -16 5 -24 20
-26 29 -4 36 17 35 118 -1 66 -5 90 -19 109 -23 31 -38 36 -46 16z"/>
<path d="M11444 6163 c8 -66 13 -75 28 -49 10 18 12 17 24 -10 7 -16 13 -23
13 -16 1 7 17 12 45 12 26 0 51 6 60 15 17 18 43 20 48 4 3 -9 13 -9 41 0 20
7 45 10 55 7 26 -9 48 39 30 63 -23 29 -32 31 -192 31 l-159 0 7 -57z"/>
<path d="M12045 6174 c-16 -17 -25 -40 -26 -63 -2 -56 -7 -119 -14 -202 -7
-64 -5 -82 13 -122 12 -26 27 -47 34 -47 7 0 23 -3 36 -6 19 -6 25 0 43 41 11
25 22 60 24 76 5 39 12 49 35 49 10 0 22 5 26 11 6 11 88 -68 120 -116 9 -14
27 -28 40 -31 12 -3 25 -12 28 -20 3 -9 20 -14 44 -14 30 0 45 7 68 31 l29 30
-3 167 c-4 211 -15 242 -82 232 -8 -1 -24 -11 -34 -22 -19 -21 -24 -36 -25
-90 -1 -16 -4 -27 -8 -26 -5 1 -20 -4 -35 -12 -33 -16 -42 -11 -152 89 -89 81
-120 90 -161 45z"/>
<path d="M11440 6041 c0 -11 -11 -27 -23 -36 -41 -27 -55 -67 -59 -163 -2 -60
0 -65 34 -99 l36 -36 184 2 c197 2 211 5 211 55 0 14 -8 42 -18 62 -15 32 -20
35 -43 29 -55 -14 -115 -16 -123 -4 -6 10 -11 10 -23 0 -12 -10 -18 -9 -35 8
-28 28 -26 39 7 52 15 6 35 15 45 21 13 6 23 5 33 -3 8 -6 14 -8 14 -3 0 5 25
7 56 6 31 -2 60 0 65 5 6 6 5 27 -3 56 -12 45 -14 47 -48 47 -19 0 -60 2 -90
5 -44 3 -48 2 -20 -4 l35 -8 -37 -2 c-20 0 -38 4 -40 10 -2 7 -36 13 -81 16
-72 4 -77 3 -77 -16z"/>
<path d="M11895 5328 c-9 -6 -25 -8 -35 -5 -11 3 -20 1 -22 -4 -2 -4 -21 -4
-42 1 -24 5 -47 5 -57 0 -9 -5 -20 -6 -24 -2 -3 4 -12 -1 -20 -11 -10 -15 -14
-15 -18 -3 -9 22 -195 16 -212 -7 -7 -10 -18 -17 -25 -17 -9 0 -11 -9 -6 -30
3 -17 1 -30 -4 -30 -6 0 -10 -5 -10 -11 0 -5 5 -7 12 -3 7 5 9 2 5 -9 -6 -16
17 -32 41 -28 6 1 17 -9 23 -23 7 -14 15 -23 20 -21 4 3 11 1 14 -5 4 -6 15
-8 25 -5 12 4 19 -1 23 -15 3 -12 13 -20 27 -20 11 0 35 -7 52 -16 24 -12 39
-14 69 -6 22 6 48 8 59 5 11 -3 20 0 20 6 0 8 5 8 19 -1 15 -9 23 -9 34 0 10
8 32 10 69 6 83 -10 119 21 132 113 2 17 6 35 9 40 2 4 -3 21 -12 36 -20 35
-137 80 -166 65z"/>
<path d="M12321 4864 c0 -11 3 -14 6 -6 3 7 2 16 -1 19 -3 4 -6 -2 -5 -13z"/>
<path d="M11600 4811 c0 -18 98 -35 120 -21 11 7 4 10 -27 10 -23 0 -45 5 -48
10 -8 13 -45 13 -45 1z"/>
<path d="M12080 4810 c0 -5 7 -10 16 -10 8 0 12 5 9 10 -3 6 -10 10 -16 10 -5
0 -9 -4 -9 -10z"/>
<path d="M11760 4799 c0 -5 5 -7 10 -4 6 3 10 8 10 11 0 2 -4 4 -10 4 -5 0
-10 -5 -10 -11z"/>
<path d="M12216 4790 c6 -6 21 -6 39 -1 30 9 30 9 -9 10 -26 1 -37 -2 -30 -9z"/>
<path d="M12397 4717 c5 -9 110 -4 119 6 4 4 -23 5 -59 4 -36 -1 -63 -5 -60
-10z"/>
<path d="M12560 4650 c0 -5 5 -10 10 -10 6 0 10 5 10 10 0 6 -4 10 -10 10 -5
0 -10 -4 -10 -10z"/>
<path d="M12705 4570 c-3 -5 -1 -10 4 -10 6 0 11 5 11 10 0 6 -2 10 -4 10 -3
0 -8 -4 -11 -10z"/>
<path d="M12772 4516 c7 -8 15 -12 17 -11 5 6 -10 25 -20 25 -5 0 -4 -6 3 -14z"/>
<path d="M13516 2642 c-3 -5 8 -6 25 -4 16 2 29 6 29 8 0 8 -49 4 -54 -4z"/>
<path d="M7935 8530 c3 -5 8 -10 11 -10 2 0 4 5 4 10 0 6 -5 10 -11 10 -5 0
-7 -4 -4 -10z"/>
<path d="M8073 8488 c2 -12 -6 -14 -80 -19 -18 -1 -33 -6 -33 -11 0 -4 59 -8
130 -8 113 0 130 2 130 16 0 11 -5 14 -16 10 -9 -4 -28 1 -42 10 -18 12 -27
13 -30 6 -5 -15 -42 -16 -42 -2 0 6 -4 10 -10 10 -5 0 -9 -5 -7 -12z"/>
<path d="M8240 8476 c6 -19 16 -21 88 -23 68 -2 83 1 98 18 17 19 16 19 -12
14 -68 -11 -124 -13 -129 -6 -2 5 -16 11 -29 13 -21 4 -23 2 -16 -16z"/>
<path d="M7143 8483 c-13 -2 -23 -10 -23 -18 0 -14 140 -27 173 -15 17 5 17 7
3 19 -13 11 -19 11 -31 1 -12 -10 -18 -10 -30 0 -12 10 -19 10 -27 2 -16 -16
-28 -15 -28 3 0 8 -3 14 -7 14 -5 -1 -18 -4 -30 -6z"/>
<path d="M7350 8480 c0 -5 7 -10 15 -10 8 0 15 5 15 10 0 6 -7 10 -15 10 -8 0
-15 -4 -15 -10z"/>
<path d="M7508 8476 c-17 -9 -30 -10 -36 -4 -9 9 -52 -9 -52 -22 0 -3 32 -5
70 -6 39 0 70 2 70 6 0 3 -6 14 -12 23 -12 15 -16 15 -40 3z"/>
<path d="M7570 8474 c0 -26 28 -40 36 -19 3 8 4 20 1 27 -3 8 -6 5 -6 -6 -1
-20 -1 -20 -16 0 -14 19 -14 19 -15 -2z"/>
<path d="M7650 8483 c1 -21 20 -30 71 -36 67 -6 90 3 66 27 -20 20 -47 21 -47
1 0 -19 -9 -19 -34 0 -21 16 -56 20 -56 8z"/>
<path d="M7840 8470 c0 -17 7 -20 40 -20 31 0 40 4 40 18 0 13 -10 18 -40 19
-34 2 -40 0 -40 -17z"/>
<path d="M10350 8480 c0 -5 7 -10 16 -10 8 0 12 5 9 10 -3 6 -10 10 -16 10 -5
0 -9 -4 -9 -10z"/>
<path d="M6628 8473 c6 -3 12 -8 12 -13 0 -11 39 -20 45 -10 7 11 -3 17 -40
22 -16 3 -24 3 -17 1z"/>
<path d="M7028 8475 c-3 -3 -26 -6 -52 -7 -28 0 -46 -5 -46 -13 0 -14 146 -20
155 -5 9 15 -43 38 -57 25z"/>
<path d="M8455 8472 c-13 -14 -2 -21 30 -20 43 2 47 25 5 25 -16 0 -32 -3 -35
-5z"/>
<path d="M8820 8466 c0 -9 7 -16 16 -16 9 0 14 5 12 12 -6 18 -28 21 -28 4z"/>
<path d="M6016 8458 c-10 -6 -31 -8 -46 -4 -19 3 -30 1 -33 -8 -3 -8 -19 -17
-36 -21 -38 -8 -40 -21 -4 -28 36 -7 53 1 53 25 0 17 3 18 14 9 21 -17 136 -4
136 16 0 9 -8 13 -22 12 -13 -2 -28 -1 -33 3 -6 3 -19 2 -29 -4z"/>
<path d="M6882 8458 c3 -7 13 -15 22 -16 12 -3 17 1 14 10 -3 7 -13 15 -22 16
-12 3 -17 -1 -14 -10z"/>
<path d="M7320 8462 c0 -15 11 -21 27 -15 12 5 12 7 1 14 -17 11 -28 11 -28 1z"/>
<path d="M8580 8460 c0 -5 6 -10 14 -10 8 0 18 5 21 10 3 6 -3 10 -14 10 -12
0 -21 -4 -21 -10z"/>
<path d="M8880 8460 c0 -5 7 -10 15 -10 8 0 15 5 15 10 0 6 -7 10 -15 10 -8 0
-15 -4 -15 -10z"/>
<path d="M6595 8450 c3 -5 8 -10 11 -10 2 0 4 5 4 10 0 6 -5 10 -11 10 -5 0
-7 -4 -4 -10z"/>
<path d="M6715 8450 c-3 -5 -1 -10 4 -10 6 0 11 5 11 10 0 6 -2 10 -4 10 -3 0
-8 -4 -11 -10z"/>
<path d="M6850 8449 c0 -5 5 -7 10 -4 6 3 10 8 10 11 0 2 -4 4 -10 4 -5 0 -10
-5 -10 -11z"/>
<path d="M5766 8369 c-29 -31 -31 -44 -4 -34 16 6 44 52 37 60 -3 2 -18 -9
-33 -26z"/>
<path d="M5810 8332 c0 -6 -8 -13 -17 -15 -16 -4 -16 -5 -1 -6 18 -1 34 16 24
26 -3 4 -6 1 -6 -5z"/>
<path d="M5740 8265 c-6 -8 -10 -20 -8 -26 2 -6 12 0 21 15 18 27 8 37 -13 11z"/>
<path d="M6600 7508 c-1 -2 -3 -65 -4 -140 -3 -106 -1 -140 9 -148 9 -7 47
-11 97 -9 151 4 146 5 150 -43 l3 -43 65 0 65 0 3 54 c4 63 -5 74 -55 75 l-38
1 -5 125 -5 125 -142 3 c-79 1 -143 1 -143 0z m248 -145 l-3 -108 -105 0 -105
0 -1 100 c-1 55 1 103 3 108 2 4 51 7 109 7 l105 0 -3 -107z m100 -175 c3 -25
0 -28 -27 -28 -26 0 -31 4 -31 23 0 30 9 39 35 35 13 -2 21 -12 23 -30z"/>
<path d="M7610 6914 c-136 -59 -169 -223 -65 -330 82 -85 203 -86 291 -2 104
100 76 260 -58 329 -45 23 -119 24 -168 3z m131 -25 c69 -24 119 -90 119 -159
0 -54 -20 -100 -59 -133 -33 -27 -98 -50 -122 -43 -8 2 -26 7 -41 10 -37 8
-86 52 -103 93 -21 50 -18 102 8 147 29 51 66 78 119 87 24 3 43 7 44 8 1 0
16 -4 35 -10z"/>
<path d="M7641 6806 c-18 -22 -10 -161 9 -161 9 0 16 11 18 28 4 35 21 34 54
-3 17 -19 32 -28 42 -24 14 5 12 10 -9 36 -24 28 -24 31 -9 60 15 28 14 31 -7
54 -26 27 -79 33 -98 10z m74 -41 c0 -13 -8 -21 -22 -23 -19 -3 -23 1 -23 23
0 22 4 26 23 23 14 -2 22 -10 22 -23z"/>
<path d="M8365 6843 c-54 -10 -82 -43 -86 -103 -3 -48 1 -61 26 -85 51 -52
163 -20 166 47 3 54 -1 81 -15 103 -17 25 -60 43 -91 38z m53 -71 c26 -34 4
-92 -35 -92 -16 0 -35 4 -42 9 -19 12 -20 74 -2 95 16 19 59 12 79 -12z"/>
<path d="M8755 6840 l-50 -5 -3 -94 c-1 -52 1 -98 7 -104 5 -5 37 -10 71 -12
46 -2 63 0 67 11 8 21 -1 27 -50 33 -33 5 -42 10 -42 26 0 16 8 21 45 25 32 4
46 10 48 23 3 13 -3 17 -25 17 -38 0 -73 10 -73 21 0 5 17 9 38 9 44 0 67 13
59 33 -7 19 -31 23 -92 17z"/>
<path d="M9295 6840 c-8 -13 3 -30 20 -30 14 0 27 24 18 34 -10 9 -31 7 -38
-4z"/>
<path d="M9390 6790 c0 -59 0 -60 28 -60 16 0 37 -6 47 -14 16 -12 17 -16 6
-30 -7 -9 -28 -16 -47 -16 -18 0 -36 -5 -40 -11 -18 -30 81 -40 114 -11 32 26
37 63 12 94 -11 15 -30 28 -42 30 -38 5 -31 25 12 32 24 4 40 12 40 20 0 17
-31 26 -87 26 l-43 0 0 -60z"/>
<path d="M7145 6831 c-8 -13 -8 -188 0 -201 10 -16 132 -13 138 4 8 19 -1 26
-34 26 -40 0 -59 10 -59 31 0 19 11 23 61 19 27 -1 43 18 30 38 -3 6 -27 12
-51 14 -60 4 -58 22 3 26 42 3 47 5 47 28 0 23 -3 24 -64 24 -36 0 -67 -4 -71
-9z"/>
<path d="M8089 6811 c-23 -23 -29 -38 -29 -70 0 -87 56 -130 140 -109 58 15
53 38 -8 38 -68 0 -86 16 -79 69 3 24 8 46 12 49 4 4 32 7 63 7 64 0 77 15 29
33 -57 20 -95 15 -128 -17z"/>
<path d="M8516 6818 c-20 -29 -22 -156 -3 -183 18 -24 37 -11 37 25 0 42 13
43 50 5 19 -19 39 -35 46 -35 23 0 23 29 -1 54 -23 25 -23 27 -8 54 21 37 11
80 -23 92 -43 17 -82 12 -98 -12z m80 -40 c8 -12 -24 -40 -37 -32 -5 3 -9 14
-9 25 0 21 34 27 46 7z"/>
<path d="M8890 6825 c0 -8 7 -15 15 -15 10 0 15 -11 16 -32 2 -57 4 -63 19
-66 12 -2 14 6 12 42 -3 37 0 46 17 56 32 16 16 30 -35 30 -32 0 -44 -4 -44
-15z"/>
<path d="M9017 6834 c-11 -11 -8 -124 3 -124 6 0 10 14 10 30 0 32 14 40 24
15 8 -22 23 -18 32 8 7 20 9 19 14 -12 3 -19 11 -36 18 -39 10 -3 12 10 10 54
-2 48 -7 59 -21 62 -12 3 -20 -4 -24 -17 -7 -27 -9 -26 -36 5 -12 14 -26 22
-30 18z"/>
<path d="M6605 6820 c-4 -6 -1 -17 5 -25 13 -15 10 -127 -4 -157 -7 -16 -2
-18 37 -18 52 0 63 9 42 36 -16 22 -21 134 -5 134 6 0 10 9 10 20 0 17 -7 20
-39 20 -22 0 -43 -5 -46 -10z"/>
<path d="M6736 6822 c-5 -9 -10 -97 -7 -159 1 -36 4 -43 21 -43 17 0 19 8 22
68 l3 67 28 -54 c15 -30 27 -61 27 -68 0 -8 13 -13 34 -13 l33 0 -1 103 c-1
95 -2 102 -21 102 -17 0 -21 -8 -25 -55 l-5 -55 -19 40 c-11 22 -26 48 -34 58
-16 18 -47 23 -56 9z"/>
<path d="M6925 6820 c-11 -17 5 -30 36 -30 l29 0 0 -72 c0 -79 9 -104 34 -95
13 5 16 22 16 81 l0 75 32 9 c18 4 32 15 34 25 2 15 -8 17 -86 17 -49 0 -92
-4 -95 -10z"/>
<path d="M7314 6817 c-3 -8 -4 -54 -2 -103 l3 -89 74 -3 74 -3 -15 23 c-9 13
-25 23 -36 24 -46 3 -52 11 -52 73 0 33 -3 66 -6 75 -7 19 -33 21 -40 3z"/>
<path d="M9287 6773 c-4 -3 -7 -37 -7 -75 0 -66 1 -68 25 -68 24 0 25 2 25 75
0 66 -2 75 -18 75 -10 0 -22 -3 -25 -7z"/>
<path d="M5485 6700 c3 -5 8 -10 11 -10 2 0 4 5 4 10 0 6 -5 10 -11 10 -5 0
-7 -4 -4 -10z"/>
<path d="M5475 6670 c3 -5 8 -10 11 -10 2 0 4 5 4 10 0 6 -5 10 -11 10 -5 0
-7 -4 -4 -10z"/>
<path d="M5483 6643 c-15 -5 -17 -23 -4 -23 5 0 11 7 15 15 3 8 4 15 3 14 -1
0 -8 -3 -14 -6z"/>
<path d="M5465 6580 c3 -5 8 -10 11 -10 2 0 4 5 4 10 0 6 -5 10 -11 10 -5 0
-7 -4 -4 -10z"/>
<path d="M5414 6529 c-3 -6 2 -18 11 -27 16 -16 17 -16 12 -1 -3 9 0 22 6 28
8 8 7 11 -5 11 -9 0 -20 -5 -24 -11z"/>
<path d="M6616 6332 c-3 -3 -6 -12 -6 -19 0 -17 42 -14 47 3 4 12 -32 26 -41
16z"/>
<path d="M7280 6330 c-13 -9 -13 -11 0 -20 8 -5 27 -10 43 -10 32 0 38 -29 7
-37 -11 -3 -20 -11 -20 -19 0 -7 9 -18 20 -24 11 -6 20 -20 20 -30 0 -13 -7
-20 -20 -21 -11 -1 -24 -3 -30 -4 -5 -1 -14 -3 -20 -4 -5 0 -10 -7 -10 -15 0
-31 92 -29 123 3 19 19 20 25 10 63 -7 27 -8 47 -2 53 15 15 11 33 -13 55 -23
21 -82 27 -108 10z"/>
<path d="M7671 6314 c-32 -40 -30 -132 4 -168 31 -33 68 -34 102 0 23 23 25
31 21 94 -4 78 -20 99 -75 100 -22 0 -37 -8 -52 -26z m53 -59 c-31 -41 -34
-42 -27 -12 9 42 12 47 33 47 20 0 20 -1 -6 -35z m28 -46 c-4 -29 -26 -49 -39
-36 -4 5 33 67 41 67 1 0 1 -14 -2 -31z"/>
<path d="M7854 6315 c-22 -33 -29 -96 -15 -138 13 -40 53 -62 93 -52 58 15 75
142 27 194 -29 30 -84 28 -105 -4z m71 -24 c3 -5 -6 -22 -20 -38 -20 -23 -24
-25 -25 -10 0 38 30 71 45 48z m5 -100 c-6 -12 -17 -21 -25 -21 -20 0 -19 7 8
39 24 30 36 17 17 -18z"/>
<path d="M8021 6326 c-8 -10 -12 -48 -10 -110 3 -92 4 -96 25 -96 20 0 23 6
26 43 3 41 4 42 43 47 32 4 40 9 40 25 0 16 -8 21 -38 25 -49 6 -48 24 0 28
47 4 61 16 43 37 -17 20 -113 21 -129 1z"/>
<path d="M6712 6273 c3 -56 4 -58 32 -60 49 -4 58 -10 46 -33 -7 -12 -21 -20
-38 -20 -15 0 -34 -5 -42 -10 -23 -15 5 -30 57 -30 33 0 46 5 62 26 12 15 21
35 21 46 0 25 -44 68 -70 68 -11 0 -20 7 -20 15 0 10 10 15 28 15 27 0 52 15
52 32 0 4 -29 8 -65 8 l-66 0 3 -57z"/>
<path d="M7130 6309 l-34 -21 22 -18 c27 -22 33 -110 7 -110 -18 0 -20 -26 -4
-36 20 -12 94 -12 101 0 11 16 10 23 -9 42 -13 12 -20 39 -23 87 -3 39 -9 72
-15 74 -5 1 -26 -7 -45 -18z"/>
<path d="M7495 6283 c-71 -75 -72 -113 -5 -113 32 0 39 -4 44 -25 9 -36 46
-35 46 2 0 14 7 35 16 45 16 16 16 18 0 24 -11 4 -16 18 -16 48 0 39 -13 66
-32 66 -5 0 -29 -21 -53 -47z m35 -48 c0 -8 -7 -15 -16 -15 -14 0 -14 3 -4 15
7 8 14 15 16 15 2 0 4 -7 4 -15z"/>
<path d="M5187 6297 c-4 -11 -1 -27 8 -40 13 -18 15 -19 21 -3 4 9 4 20 0 23
-3 4 -7 0 -7 -8 -1 -8 -4 0 -8 16 -5 25 -8 27 -14 12z"/>
<path d="M6604 6256 c-3 -7 -4 -42 -2 -77 3 -58 5 -64 26 -67 21 -3 22 -1 22
77 0 75 -2 81 -20 81 -11 0 -23 -6 -26 -14z"/>
<path d="M6890 6230 c0 -18 7 -20 85 -20 47 0 85 4 85 8 0 22 -29 32 -97 32
-66 0 -73 -2 -73 -20z"/>
<path d="M10310 6176 c0 -9 5 -16 10 -16 6 0 10 4 10 9 0 6 -4 13 -10 16 -5 3
-10 -1 -10 -9z"/>
<path d="M5106 6157 c3 -10 9 -15 12 -12 3 3 0 11 -7 18 -10 9 -11 8 -5 -6z"/>
<path d="M10885 6108 c6 -25 4 -30 -8 -25 -10 4 -16 -2 -20 -19 -2 -13 0 -24
4 -24 5 0 9 8 9 18 0 13 2 14 9 4 11 -18 34 10 25 32 -3 9 -1 23 6 31 10 13 9
15 -10 15 -19 0 -21 -4 -15 -32z"/>
<path d="M5041 6074 c0 -11 3 -14 6 -6 3 7 2 16 -1 19 -3 4 -6 -2 -5 -13z"/>
<path d="M10691 6064 c0 -11 3 -14 6 -6 3 7 2 16 -1 19 -3 4 -6 -2 -5 -13z"/>
<path d="M11140 6036 c0 -9 5 -16 10 -16 6 0 10 4 10 9 0 6 -4 13 -10 16 -5 3
-10 -1 -10 -9z"/>
<path d="M10843 6010 c-3 -11 -9 -20 -14 -20 -5 0 -9 -6 -9 -13 0 -8 -7 -28
-16 -46 -13 -26 -14 -35 -4 -44 10 -10 11 -8 6 8 -6 16 -5 18 5 8 7 -7 24 -13
39 -13 l25 1 -22 18 c-24 20 -21 33 4 24 13 -5 13 -2 4 15 -6 11 -8 34 -5 51
7 34 -5 43 -13 11z"/>
<path d="M5026 5987 c3 -10 9 -15 12 -12 3 3 0 11 -7 18 -10 9 -11 8 -5 -6z"/>
<path d="M5100 5980 c0 -5 7 -7 15 -4 8 4 15 8 15 10 0 2 -7 4 -15 4 -8 0 -15
-4 -15 -10z"/>
<path d="M11151 5934 c0 -11 3 -14 6 -6 3 7 2 16 -1 19 -3 4 -6 -2 -5 -13z"/>
<path d="M10700 5880 c0 -5 5 -10 11 -10 5 0 7 5 4 10 -3 6 -8 10 -11 10 -2 0
-4 -4 -4 -10z"/>
<path d="M10765 5830 c3 -5 14 -10 23 -10 15 0 15 2 2 10 -20 13 -33 13 -25 0z"/>
<path d="M6622 5814 c-26 -18 -30 -65 -7 -88 9 -9 34 -20 55 -26 59 -16 53
-40 -9 -40 -52 0 -72 -13 -52 -33 17 -17 114 -15 134 2 20 16 22 74 3 90 -7 6
-30 17 -51 24 -22 8 -41 19 -42 24 -6 17 31 25 62 13 39 -15 53 2 26 29 -25
25 -86 28 -119 5z"/>
<path d="M6819 5817 c-22 -12 -24 -19 -27 -97 -1 -47 2 -91 7 -99 15 -23 41
-5 41 29 0 41 21 39 57 -5 27 -32 31 -34 49 -21 19 14 18 15 -5 40 -23 24 -24
29 -13 59 7 19 12 40 12 49 0 38 -77 66 -121 45z m69 -60 c4 -20 -25 -34 -40
-19 -15 15 -1 44 19 40 10 -2 19 -11 21 -21z"/>
<path d="M7006 5817 c-14 -10 -16 -29 -14 -107 3 -87 5 -95 23 -95 17 0 21 8
25 55 5 53 5 54 17 27 16 -35 46 -35 64 1 13 27 13 26 19 -28 4 -47 8 -55 25
-55 18 0 20 8 23 96 2 75 -1 99 -12 108 -20 17 -50 0 -66 -39 -16 -39 -27 -38
-47 5 -19 40 -35 48 -57 32z"/>
<path d="M7218 5824 c-3 -5 -6 -47 -7 -94 -2 -75 0 -88 18 -104 17 -15 30 -18
68 -12 25 3 55 14 65 23 19 17 25 68 8 78 -6 4 -9 22 -8 41 1 21 -4 41 -14 51
-18 18 -122 31 -130 17z m90 -56 c-3 -7 -13 -13 -23 -13 -10 0 -20 6 -22 13
-3 7 5 12 22 12 17 0 25 -5 23 -12z m17 -88 c0 -10 -12 -16 -32 -18 -28 -3
-33 0 -33 18 0 18 5 21 33 18 20 -2 32 -8 32 -18z"/>
<path d="M7428 5819 c-15 -8 -18 -25 -18 -103 0 -75 3 -95 15 -100 19 -7 26 9
28 68 1 25 6 46 10 46 5 0 21 -27 35 -60 23 -52 30 -60 54 -60 l28 0 0 105 c0
88 -3 107 -16 112 -22 8 -34 -14 -34 -67 l0 -44 -32 54 c-36 59 -44 64 -70 49z"/>
<path d="M10885 5810 c-3 -5 1 -10 10 -10 9 0 13 5 10 10 -3 6 -8 10 -10 10
-2 0 -7 -4 -10 -10z"/>
<path d="M10840 5786 c0 -8 -7 -21 -15 -29 -13 -13 -13 -16 1 -21 8 -3 13 -2
10 3 -3 4 1 17 9 27 17 23 19 34 5 34 -5 0 -10 -6 -10 -14z"/>
<path d="M10796 5778 c3 -5 10 -6 15 -3 13 9 11 12 -6 12 -8 0 -12 -4 -9 -9z"/>
<path d="M11116 5775 c4 -8 8 -15 10 -15 2 0 4 7 4 15 0 8 -4 15 -10 15 -5 0
-7 -7 -4 -15z"/>
<path d="M11070 5755 c0 -10 29 -24 34 -17 3 6 -3 12 -14 15 -11 3 -20 4 -20
2z"/>
<path d="M10970 5730 c0 -5 5 -10 11 -10 5 0 7 5 4 10 -3 6 -8 10 -11 10 -2 0
-4 -4 -4 -10z"/>
<path d="M10851 5723 c-1 -7 -9 -13 -18 -13 -13 0 -14 -3 -5 -12 15 -15 37 3
29 24 -4 9 -6 10 -6 1z"/>
<path d="M10798 5672 c-8 -12 -18 -19 -21 -15 -4 3 -7 1 -7 -5 0 -16 12 -15
34 1 11 8 17 20 14 27 -3 10 -9 8 -20 -8z"/>
<path d="M10671 5664 c0 -11 3 -14 6 -6 3 7 2 16 -1 19 -3 4 -6 -2 -5 -13z"/>
<path d="M11050 5669 c0 -5 5 -7 10 -4 6 3 10 8 10 11 0 2 -4 4 -10 4 -5 0
-10 -5 -10 -11z"/>
<path d="M11120 5640 c6 -11 12 -20 14 -20 2 0 2 9 -1 20 -3 11 -9 20 -15 20
-5 0 -4 -9 2 -20z"/>
<path d="M10840 5630 c19 -13 30 -13 30 0 0 6 -10 10 -22 10 -19 0 -20 -2 -8
-10z"/>
<path d="M10776 5622 c-6 -10 5 -62 13 -62 3 0 12 9 19 20 8 13 8 20 1 20 -5
0 -8 4 -5 9 3 5 -1 11 -9 15 -8 3 -16 2 -19 -2z"/>
<path d="M11050 5604 c0 -8 5 -12 10 -9 6 4 8 11 5 16 -9 14 -15 11 -15 -7z"/>
<path d="M11133 5603 c-10 -4 -9 -9 3 -20 18 -18 24 -15 15 8 -3 9 -12 14 -18
12z"/>
<path d="M11034 5563 c11 -11 46 -14 46 -3 0 6 -12 10 -27 10 -14 0 -23 -3
-19 -7z"/>
<path d="M10770 5520 c-9 -6 -10 -10 -3 -10 6 0 15 5 18 10 8 12 4 12 -15 0z"/>
<path d="M5012 5500 c0 -14 2 -19 5 -12 2 6 2 18 0 25 -3 6 -5 1 -5 -13z"/>
<path d="M11140 5501 c0 -6 5 -13 10 -16 6 -3 10 1 10 9 0 9 -4 16 -10 16 -5
0 -10 -4 -10 -9z"/>
<path d="M10815 5490 c3 -5 11 -10 16 -10 6 0 7 5 4 10 -3 6 -11 10 -16 10 -6
0 -7 -4 -4 -10z"/>
<path d="M10738 5483 c7 -3 16 -2 19 1 4 3 -2 6 -13 5 -11 0 -14 -3 -6 -6z"/>
<path d="M8359 5412 c-99 -40 -156 -155 -124 -252 28 -85 114 -150 196 -150
47 0 124 32 152 64 48 54 59 85 55 149 -7 112 -84 192 -194 199 -28 2 -66 -2
-85 -10z m150 -42 c75 -38 108 -108 90 -189 -12 -52 -20 -64 -73 -103 -72 -52
-190 -29 -235 47 -90 149 65 324 218 245z"/>
<path d="M8505 5282 c-33 -25 -65 -71 -59 -85 3 -9 10 -14 15 -11 15 9 49 -6
49 -22 0 -24 27 -16 32 10 7 33 -5 109 -17 113 -5 1 -14 -1 -20 -5z"/>
<path d="M8336 5248 c-35 -50 -7 -98 58 -98 31 0 35 2 24 14 -7 8 -16 12 -20
10 -9 -6 -38 7 -38 17 0 5 9 9 19 9 32 0 51 11 51 29 0 44 -68 57 -94 19z m54
-8 c0 -5 -7 -10 -16 -10 -8 0 -12 5 -9 10 3 6 10 10 16 10 5 0 9 -4 9 -10z"/>
<path d="M11120 5419 c0 -5 5 -7 10 -4 6 3 10 8 10 11 0 2 -4 4 -10 4 -5 0
-10 -5 -10 -11z"/>
<path d="M11148 5385 c-6 -30 -3 -43 8 -33 3 4 4 19 2 35 l-3 28 -7 -30z"/>
<path d="M7220 5320 c-20 -12 -8 -22 37 -29 42 -7 53 -34 16 -39 -28 -4 -30
-32 -3 -39 13 -3 20 -14 20 -29 0 -19 -5 -24 -24 -24 -35 0 -56 -10 -56 -26 0
-19 43 -28 87 -17 46 11 64 47 46 93 -7 18 -7 32 -2 36 16 9 10 43 -11 64 -21
21 -83 27 -110 10z"/>
<path d="M7413 5314 c-6 -17 5 -34 23 -34 11 0 14 -14 14 -61 0 -58 -1 -60
-30 -70 -36 -13 -38 -26 -7 -38 26 -10 71 9 81 34 3 9 6 52 6 96 0 68 -2 79
-17 80 -10 1 -28 3 -41 4 -13 1 -26 -4 -29 -11z"/>
<path d="M7572 5314 c-36 -15 -50 -52 -36 -93 7 -19 20 -29 47 -35 45 -11 44
-30 -2 -34 -24 -3 -31 -7 -27 -19 3 -8 6 -17 6 -19 0 -2 15 -4 34 -4 72 0 120
102 79 172 -22 38 -59 50 -101 32z m58 -54 c13 -25 5 -40 -21 -40 -22 0 -34
22 -25 45 8 21 33 19 46 -5z"/>
<path d="M7945 5317 c-25 -19 -11 -37 30 -37 53 0 52 -24 -6 -85 -67 -71 -63
-85 31 -85 63 0 70 2 70 20 0 18 -20 26 -52 21 -14 -2 -9 16 12 41 11 14 24
37 29 50 22 59 -60 114 -114 75z"/>
<path d="M11147 5310 c-3 -11 -1 -23 4 -26 5 -3 9 6 9 20 0 31 -6 34 -13 6z"/>
<path d="M6600 5308 c0 -7 12 -29 27 -51 l27 -39 -27 -48 c-24 -43 -25 -48
-10 -55 12 -4 25 3 44 26 l26 32 22 -32 c42 -59 77 -32 37 29 -14 22 -26 42
-26 44 0 3 14 25 30 49 36 54 37 57 6 57 -17 0 -31 -10 -43 -30 -9 -16 -20
-30 -23 -30 -4 0 -16 14 -28 30 -22 30 -62 41 -62 18z"/>
<path d="M6824 5309 c-9 -15 6 -27 41 -31 49 -5 45 -40 -9 -91 -71 -66 -59
-87 50 -87 43 0 53 3 57 19 6 25 0 31 -35 31 -15 0 -28 2 -28 5 0 3 14 24 30
47 32 43 32 66 2 101 -17 19 -96 24 -108 6z"/>
<path d="M7040 5259 c-61 -73 -62 -93 -2 -97 32 -2 42 -7 42 -21 0 -9 5 -22
12 -29 20 -20 38 -14 38 15 0 14 8 35 17 45 15 17 15 20 3 28 -9 6 -15 25 -16
49 0 38 -17 71 -35 71 -4 0 -31 -28 -59 -61z m40 -39 c0 -11 -7 -20 -15 -20
-13 0 -13 3 -3 20 7 11 14 20 15 20 2 0 3 -9 3 -20z"/>
<path d="M7784 5288 c-61 -65 -74 -89 -63 -109 7 -14 21 -19 49 -19 32 0 39
-4 42 -22 2 -15 11 -24 26 -26 18 -3 22 1 22 22 0 15 6 36 13 47 10 17 10 23
0 26 -8 3 -13 21 -13 43 0 35 -19 70 -39 70 -4 0 -21 -15 -37 -32z m26 -57 c0
-12 -20 -25 -27 -18 -7 7 6 27 18 27 5 0 9 -4 9 -9z"/>
<path d="M5013 5240 c0 -25 2 -35 4 -22 2 12 2 32 0 45 -2 12 -4 2 -4 -23z"/>
<path d="M11152 5218 c-1 -37 -6 -58 -14 -58 -9 0 -9 -3 0 -12 19 -19 23 -4
19 63 l-3 64 -2 -57z"/>
<path d="M10675 5180 c3 -5 8 -10 11 -10 2 0 4 5 4 10 0 6 -5 10 -11 10 -5 0
-7 -4 -4 -10z"/>
<path d="M10715 5170 c-3 -5 -1 -10 4 -10 6 0 11 5 11 10 0 6 -2 10 -4 10 -3
0 -8 -4 -11 -10z"/>
<path d="M5012 5145 c0 -16 2 -22 5 -12 2 9 2 23 0 30 -3 6 -5 -1 -5 -18z"/>
<path d="M5041 5144 c0 -11 3 -14 6 -6 3 7 2 16 -1 19 -3 4 -6 -2 -5 -13z"/>
<path d="M5030 5111 c0 -5 5 -13 10 -16 6 -3 10 -2 10 4 0 5 -4 13 -10 16 -5
3 -10 2 -10 -4z"/>
<path d="M5012 4992 c4 -76 24 -79 23 -4 0 41 -4 59 -13 59 -9 0 -12 -15 -10
-55z"/>
<path d="M5050 4989 c0 -11 4 -18 10 -14 5 3 7 12 3 20 -7 21 -13 19 -13 -6z"/>
<path d="M10690 4970 c0 -5 5 -10 10 -10 6 0 10 5 10 10 0 6 -4 10 -10 10 -5
0 -10 -4 -10 -10z"/>
<path d="M5013 4904 c-8 -20 8 -36 26 -25 15 10 8 41 -9 41 -6 0 -13 -7 -17
-16z"/>
<path d="M5067 4864 c-4 -4 -4 -10 -1 -15 6 -10 34 0 34 12 0 10 -24 12 -33 3z"/>
<path d="M5026 4825 c4 -8 10 -15 15 -15 4 0 6 7 3 15 -4 8 -10 15 -15 15 -4
0 -6 -7 -3 -15z"/>
<path d="M5068 4823 c7 -3 16 -2 19 1 4 3 -2 6 -13 5 -11 0 -14 -3 -6 -6z"/>
<path d="M6597 4803 c-4 -3 -7 -67 -7 -141 l0 -134 543 5 c298 3 543 6 545 6
1 1 2 10 2 21 0 15 -7 20 -29 20 -16 0 -31 6 -35 15 -8 22 -33 18 -39 -5 -3
-11 -10 -20 -15 -20 -5 0 -12 9 -15 20 -7 26 -33 26 -40 -1 -3 -12 -10 -18
-16 -14 -15 8 -14 135 0 135 6 0 13 -9 16 -20 3 -11 11 -20 18 -20 7 0 15 -8
18 -19 3 -15 11 -18 33 -13 16 3 33 11 37 18 4 8 21 14 37 14 23 0 30 5 30 20
0 11 -7 20 -15 20 -8 0 -15 7 -15 15 0 8 7 15 15 15 8 0 15 9 15 20 0 11 -7
20 -15 20 -8 0 -15 7 -15 15 0 8 -9 15 -20 15 -11 0 -20 -7 -20 -15 0 -8 -7
-15 -15 -15 -8 0 -15 7 -15 15 0 8 -9 15 -20 15 -27 0 -26 -30 1 -37 12 -3 18
-11 15 -19 -3 -9 2 -14 14 -14 16 0 20 -7 20 -30 0 -20 -5 -30 -15 -30 -8 0
-15 7 -15 15 0 8 -7 15 -15 15 -8 0 -15 6 -15 14 0 7 -9 16 -21 19 -12 3 -20
13 -19 24 4 34 0 43 -20 43 -16 0 -19 -7 -18 -45 0 -25 -2 -48 -5 -51 -5 -5
-57 39 -57 48 0 3 9 8 20 11 13 3 18 10 14 21 -8 21 -30 20 -44 -1 -10 -17
-10 -17 -20 0 -13 21 -40 23 -40 2 0 -8 -7 -15 -15 -15 -8 0 -15 7 -15 15 0 8
-9 15 -20 15 -11 0 -20 -7 -20 -15 0 -8 -7 -15 -15 -15 -8 0 -15 7 -15 15 0 8
-9 15 -20 15 -13 0 -20 -7 -20 -20 0 -11 7 -20 15 -20 8 0 15 -7 15 -15 0 -8
-7 -15 -15 -15 -11 0 -15 -12 -15 -50 0 -39 -3 -50 -16 -50 -13 0 -15 12 -14
68 1 37 2 75 1 85 -1 24 -28 21 -42 -5 l-12 -22 -8 22 c-10 26 -34 29 -43 6
-9 -23 -8 -24 13 -24 11 0 21 -9 24 -21 3 -12 10 -18 16 -14 6 3 11 -1 11 -9
0 -11 -9 -16 -30 -16 -20 0 -30 5 -30 15 0 8 -8 16 -17 16 -41 3 -46 5 -50 17
-3 7 4 12 16 12 14 0 21 6 21 20 0 27 -36 27 -43 -1 -6 -23 -27 -17 -27 7 0 8
-9 14 -20 14 -11 0 -20 -7 -20 -15 0 -8 -7 -15 -15 -15 -8 0 -15 7 -15 15 0 8
-9 15 -20 15 -11 0 -20 -7 -20 -15 0 -20 -17 -19 -28 2 -15 27 -46 9 -38 -23
5 -20 3 -27 -14 -31 -23 -6 -28 -43 -5 -43 8 0 15 -7 15 -15 0 -24 -40 -18
-66 11 -31 33 -30 44 5 44 28 0 41 14 41 46 0 23 -30 28 -45 8 -13 -19 -14
-19 -28 0 -8 10 -19 16 -25 12 -17 -10 -15 -36 3 -36 8 0 15 -7 15 -15 0 -8
-7 -15 -15 -15 -8 0 -15 6 -15 14 0 8 -7 16 -15 20 -8 3 -15 12 -15 21 0 15
-21 21 -33 8z m293 -48 c0 -8 -4 -15 -10 -15 -5 0 -10 7 -10 15 0 8 5 15 10
15 6 0 10 -7 10 -15z m70 -1 c0 -9 -5 -14 -12 -12 -18 6 -21 28 -4 28 9 0 16
-7 16 -16z m340 1 c0 -8 -4 -15 -10 -15 -5 0 -10 7 -10 15 0 8 5 15 10 15 6 0
10 -7 10 -15z m340 0 c0 -8 -4 -15 -10 -15 -5 0 -10 7 -10 15 0 8 5 15 10 15
6 0 10 -7 10 -15z m-982 -33 c2 -7 -3 -12 -12 -12 -9 0 -16 7 -16 16 0 17 22
14 28 -4z m747 -2 c3 -11 13 -20 21 -20 12 0 14 -13 12 -62 -3 -60 -4 -63 -28
-63 -21 0 -26 5 -28 33 -3 24 1 32 13 32 10 0 15 7 13 18 -2 13 -14 17 -46 18
-55 2 -60 8 -31 39 29 30 65 33 74 5z m-515 -35 c0 -8 9 -15 20 -15 11 0 20 7
20 15 0 8 7 15 15 15 10 0 15 -10 15 -30 0 -19 -5 -30 -14 -30 -9 0 -16 -12
-18 -32 -2 -28 -8 -34 -30 -36 -30 -4 -40 21 -13 32 8 3 15 12 15 21 0 11 -12
15 -50 15 -38 0 -50 4 -50 15 0 10 11 15 35 15 24 0 35 5 35 15 0 8 5 15 10
15 6 0 10 -7 10 -15z m140 5 c0 -5 -7 -10 -15 -10 -8 0 -15 5 -15 10 0 6 7 10
15 10 8 0 15 -4 15 -10z m240 -20 c0 -20 5 -30 15 -30 21 0 19 -16 -5 -40 -32
-32 -40 -24 -40 40 0 47 3 60 15 60 10 0 15 -10 15 -30z m-610 -21 c0 -5 -7
-9 -15 -9 -15 0 -20 12 -9 23 8 8 24 -1 24 -14z m68 9 c-6 -18 -28 -21 -28 -4
0 9 7 16 16 16 9 0 14 -5 12 -12z m402 -3 c0 -8 -7 -15 -15 -15 -8 0 -15 -7
-15 -15 0 -10 -10 -15 -30 -15 -27 0 -30 3 -30 30 0 29 2 30 45 30 33 0 45 -4
45 -15z m-313 -55 c23 0 9 -25 -16 -28 -32 -5 -45 11 -36 45 l7 28 15 -22 c9
-13 22 -23 30 -23z m-127 -15 c0 -10 -10 -15 -30 -15 -20 0 -30 5 -30 15 0 10
10 15 30 15 20 0 30 -5 30 -15z m438 4 c-2 -6 -8 -10 -13 -10 -5 0 -11 4 -13
10 -2 6 4 11 13 11 9 0 15 -5 13 -11z m72 -4 c0 -8 -7 -15 -15 -15 -8 0 -15 7
-15 15 0 8 7 15 15 15 8 0 15 -7 15 -15z m138 3 c-6 -18 -28 -21 -28 -4 0 9 7
16 16 16 9 0 14 -5 12 -12z"/>
<path d="M5033 4793 c-15 -3 -23 -12 -23 -24 0 -28 30 -21 41 9 5 12 7 21 6
21 -1 -1 -12 -4 -24 -6z"/>
<path d="M5090 4746 c0 -2 7 -7 16 -10 8 -3 12 -2 9 4 -6 10 -25 14 -25 6z"/>
<path d="M5010 4716 c0 -13 6 -26 13 -29 9 -3 9 -7 -2 -20 -7 -10 -10 -17 -7
-17 4 0 2 -9 -4 -21 -8 -15 -8 -24 -1 -33 6 -8 9 -21 5 -30 -3 -9 -3 -27 0
-41 6 -22 9 -24 26 -15 18 10 19 13 5 26 -12 12 -12 19 -2 34 11 19 12 19 19
2 5 -13 7 -11 7 10 1 14 -4 28 -10 30 -6 2 -8 14 -4 31 5 18 12 26 21 23 8 -3
14 -1 14 4 0 5 -12 10 -27 12 -14 2 -29 9 -31 17 -3 9 0 11 8 6 10 -6 12 -4 7
9 -4 10 -7 20 -7 22 0 2 -7 4 -15 4 -9 0 -15 -9 -15 -24z m30 -112 c0 -8 -4
-12 -10 -9 -5 3 -10 10 -10 16 0 5 5 9 10 9 6 0 10 -7 10 -16z"/>
<path d="M7642 4623 c5 -26 38 -29 38 -4 0 15 -6 21 -21 21 -14 0 -19 -5 -17
-17z"/>
<path d="M11153 4510 c0 -30 2 -43 4 -27 2 15 2 39 0 55 -2 15 -4 2 -4 -28z"/>
<path d="M5120 4515 c7 -8 17 -12 22 -9 6 4 5 10 -3 15 -22 14 -33 10 -19 -6z"/>
<path d="M5064 4495 c-3 -8 -1 -30 6 -49 6 -20 9 -40 5 -46 -3 -6 0 -7 9 -4
19 7 20 16 4 32 -9 9 -7 13 5 18 9 3 14 10 11 15 -3 5 -10 7 -15 4 -5 -4 -9
-1 -9 4 0 6 6 11 14 11 8 0 18 5 21 10 4 7 -3 8 -21 4 -19 -5 -25 -4 -20 5 4
6 5 11 1 11 -3 0 -8 -7 -11 -15z"/>
<path d="M5030 4445 c0 -8 4 -15 9 -15 5 0 7 -10 4 -22 -4 -19 -3 -20 6 -8 16
22 14 60 -4 60 -8 0 -15 -7 -15 -15z"/>
<path d="M11152 4420 c0 -14 2 -19 5 -12 2 6 2 18 0 25 -3 6 -5 1 -5 -13z"/>
<path d="M5120 4420 c0 -5 4 -10 9 -10 6 0 13 5 16 10 3 6 -1 10 -9 10 -9 0
-16 -4 -16 -10z"/>
<path d="M5011 4387 c-1 -11 8 -21 19 -24 15 -4 19 -11 15 -24 -7 -22 20 -28
28 -6 7 19 -12 47 -33 47 -10 0 -21 6 -23 13 -3 7 -6 4 -6 -6z"/>
<path d="M5136 4385 c4 -8 13 -15 21 -15 13 0 13 3 3 15 -7 8 -16 15 -21 15
-5 0 -6 -7 -3 -15z"/>
<path d="M5104 4370 c4 -14 8 -31 8 -37 1 -7 5 -13 10 -13 10 0 -1 51 -15 65
-6 7 -7 2 -3 -15z"/>
<path d="M5350 4346 c0 -14 5 -28 10 -31 6 -3 10 5 10 19 0 14 -4 28 -10 31
-6 3 -10 -5 -10 -19z"/>
<path d="M5155 4341 c-3 -6 0 -11 7 -11 10 0 9 -3 -2 -10 -19 -12 -6 -25 13
-13 13 7 13 11 2 26 -8 12 -15 14 -20 8z"/>
<path d="M5262 4334 c-8 -8 1 -11 34 -10 24 0 44 4 44 7 0 12 -67 15 -78 3z"/>
<path d="M11140 4339 c0 -5 5 -7 10 -4 6 3 10 8 10 11 0 2 -4 4 -10 4 -5 0
-10 -5 -10 -11z"/>
<path d="M5080 4330 c0 -5 5 -10 10 -10 6 0 10 5 10 10 0 6 -4 10 -10 10 -5 0
-10 -4 -10 -10z"/>
<path d="M5021 4304 c0 -11 3 -14 6 -6 3 7 2 16 -1 19 -3 4 -6 -2 -5 -13z"/>
<path d="M5286 4312 c-4 -7 -12 -10 -17 -7 -5 4 -9 -1 -9 -9 0 -10 6 -13 16
-9 12 4 15 2 12 -8 -3 -8 -12 -13 -20 -11 -9 1 -18 -7 -21 -19 -5 -17 -2 -20
15 -16 17 5 19 2 14 -19 -5 -17 -1 -27 14 -36 11 -7 20 -19 20 -26 0 -7 5 -10
10 -7 6 3 10 -4 10 -15 0 -14 -5 -20 -13 -17 -15 6 -32 -13 -31 -33 1 -8 2
-26 3 -39 1 -16 6 -21 15 -18 8 3 26 -3 39 -14 29 -22 53 -17 59 14 6 37 -2
66 -17 61 -7 -3 -16 -1 -20 5 -3 6 1 11 11 11 16 0 16 1 -2 15 -15 11 -16 17
-6 23 7 5 10 17 7 28 -6 18 -6 18 10 -1 17 -20 17 -20 12 4 -4 14 -1 32 6 40
10 12 8 14 -10 9 -16 -4 -23 -2 -23 8 0 8 -4 14 -10 14 -5 0 -10 9 -10 21 0
12 -5 19 -12 16 -7 -2 -13 -16 -12 -30 1 -18 -4 -27 -14 -27 -9 0 -13 7 -9 19
7 28 -7 89 -17 73z m64 -119 c0 -14 -19 -38 -25 -32 -8 8 5 39 16 39 5 0 9 -3
9 -7z m-25 -134 c-10 -15 -25 -10 -19 6 4 8 10 12 15 9 5 -3 7 -10 4 -15z m65
-29 c0 -5 -9 -6 -20 -3 -20 5 -25 15 -13 26 7 8 33 -11 33 -23z"/>
<path d="M11137 4314 c-4 -4 -7 -14 -7 -23 0 -11 3 -12 11 -4 6 6 10 16 7 23
-2 6 -7 8 -11 4z"/>
<path d="M5113 4283 c-17 -6 -17 -30 0 -30 7 0 13 9 13 19 0 10 0 18 -1 17 0
0 -6 -3 -12 -6z"/>
<path d="M5150 4255 c7 -9 15 -13 17 -11 7 7 -7 26 -19 26 -6 0 -6 -6 2 -15z"/>
<path d="M5146 4219 c20 -22 36 -25 28 -5 -3 8 -14 16 -26 19 -19 5 -19 5 -2
-14z"/>
<path d="M5110 4206 c0 -2 7 -7 16 -10 8 -3 12 -2 9 4 -6 10 -25 14 -25 6z"/>
<path d="M5070 4190 c0 -5 5 -10 10 -10 6 0 10 5 10 10 0 6 -4 10 -10 10 -5 0
-10 -4 -10 -10z"/>
<path d="M5233 4178 c2 -12 0 -33 -5 -44 -7 -15 -5 -30 7 -54 20 -38 30 -35
15 5 -8 21 -8 30 1 36 7 4 14 17 16 29 2 13 -1 19 -8 15 -6 -4 -9 0 -7 10 2
10 -3 20 -10 22 -8 3 -11 -3 -9 -19z"/>
<path d="M5141 4143 c0 -5 4 -17 9 -28 8 -18 9 -17 9 8 1 15 -3 27 -9 27 -5 0
-10 -3 -9 -7z"/>
<path d="M5100 4100 c0 -5 5 -10 10 -10 6 0 10 5 10 10 0 6 -4 10 -10 10 -5 0
-10 -4 -10 -10z"/>
<path d="M5190 4091 c0 -5 4 -11 9 -13 5 -1 13 -16 17 -33 6 -25 5 -28 -7 -18
-8 6 -20 8 -27 4 -9 -5 -5 -12 13 -21 21 -11 28 -12 34 -1 6 10 10 9 14 -4 4
-9 3 -13 -3 -10 -6 3 -10 0 -10 -8 0 -20 61 -61 88 -59 14 1 21 -2 16 -9 -6
-10 42 -69 57 -69 9 0 -1 41 -15 60 -29 38 -47 80 -35 80 7 0 9 3 6 7 -4 3
-15 -1 -24 -9 -23 -19 -61 -29 -69 -17 -3 5 2 9 10 9 20 0 29 16 21 40 -4 13
-15 20 -31 20 -17 0 -27 8 -34 24 -9 25 -30 44 -30 27z"/>
<path d="M5427 4093 c-12 -12 -7 -43 7 -43 9 0 12 8 8 25 -5 27 -6 28 -15 18z"/>
<path d="M5429 4011 c-14 -13 -15 -18 -4 -28 10 -9 14 -6 18 15 6 33 6 33 -14
13z"/>
<path d="M5380 3974 c0 -13 30 -34 49 -34 29 0 26 13 -6 28 -29 13 -43 15 -43
6z"/>
<path d="M5410 3849 c0 -5 5 -7 10 -4 6 3 10 8 10 11 0 2 -4 4 -10 4 -5 0 -10
-5 -10 -11z"/>
<path d="M10696 3835 c4 -8 11 -15 16 -15 6 0 5 6 -2 15 -7 8 -14 15 -16 15
-2 0 -1 -7 2 -15z"/>
<path d="M10735 3820 c3 -5 8 -10 11 -10 2 0 4 5 4 10 0 6 -5 10 -11 10 -5 0
-7 -4 -4 -10z"/>
<path d="M5960 3710 c0 -5 5 -10 10 -10 6 0 10 5 10 10 0 6 -4 10 -10 10 -5 0
-10 -4 -10 -10z"/>
<path d="M5984 2935 c3 -29 16 -46 16 -22 0 27 10 21 72 -44 32 -34 58 -57 58
-52 0 10 -132 143 -142 143 -4 0 -5 -11 -4 -25z"/>
<path d="M5991 2874 c0 -11 3 -14 6 -6 3 7 2 16 -1 19 -3 4 -6 -2 -5 -13z"/>
<path d="M5987 2819 c-3 -12 -2 -31 3 -42 7 -18 9 -14 9 21 1 46 -4 54 -12 21z"/>
<path d="M6042 2773 l2 -58 3 48 c3 40 7 48 20 43 13 -5 14 -4 3 9 -23 27 -30
16 -28 -42z"/>
<path d="M6157 2786 c10 -13 27 -30 38 -36 11 -7 4 4 -14 24 -40 42 -50 47
-24 12z"/>
<path d="M6235 2710 c10 -11 20 -20 23 -20 3 0 -3 9 -13 20 -10 11 -20 20 -23
20 -3 0 3 -9 13 -20z"/>
<path d="M6042 2670 c0 -19 2 -27 5 -17 2 9 2 25 0 35 -3 9 -5 1 -5 -18z"/>
<path d="M6220 2645 c7 -9 15 -13 17 -11 7 7 -7 26 -19 26 -6 0 -6 -6 2 -15z"/>
<path d="M6043 2595 c0 -22 2 -30 4 -17 2 12 2 30 0 40 -3 9 -5 -1 -4 -23z"/>
<path d="M6340 2606 c0 -2 8 -10 18 -17 15 -13 16 -12 3 4 -13 16 -21 21 -21
13z"/>
<path d="M6041 2534 c0 -11 3 -14 6 -6 3 7 2 16 -1 19 -3 4 -6 -2 -5 -13z"/>
<path d="M6446 2499 c21 -25 41 -44 44 -42 2 2 -16 23 -40 46 l-44 42 40 -46z"/>
<path d="M6143 2503 c9 -2 25 -2 35 0 9 3 1 5 -18 5 -19 0 -27 -2 -17 -5z"/>
<path d="M10888 1323 c7 -3 16 -2 19 1 4 3 -2 6 -13 5 -11 0 -14 -3 -6 -6z"/>
<path d="M1888 6963 c7 -3 16 -2 19 1 4 3 -2 6 -13 5 -11 0 -14 -3 -6 -6z"/>
<path d="M1051 6868 c1 -18 17 -55 18 -43 1 6 4 20 7 33 5 16 2 22 -10 22 -9
0 -16 -6 -15 -12z"/>
<path d="M1148 6848 c9 -9 15 -9 24 0 9 9 7 12 -12 12 -19 0 -21 -3 -12 -12z"/>
<path d="M830 6729 c0 -11 25 -22 39 -17 6 1 -1 8 -14 15 -14 6 -25 7 -25 2z"/>
<path d="M800 6690 c0 -6 7 -10 15 -10 8 0 15 2 15 4 0 2 -7 6 -15 10 -8 3
-15 1 -15 -4z"/>
<path d="M770 6580 c0 -5 7 -10 15 -10 8 0 15 5 15 10 0 6 -7 10 -15 10 -8 0
-15 -4 -15 -10z"/>
<path d="M700 6110 c0 -5 5 -10 10 -10 6 0 10 5 10 10 0 6 -4 10 -10 10 -5 0
-10 -4 -10 -10z"/>
<path d="M420 5975 c0 -8 6 -15 14 -15 22 0 28 17 10 24 -22 9 -24 8 -24 -9z"/>
<path d="M4101 4956 c-21 -22 -21 -23 -3 -39 24 -22 30 -21 53 6 24 29 24 32
-5 45 -20 9 -27 7 -45 -12z"/>
<path d="M4478 4953 c-32 -16 -35 -28 -12 -41 18 -10 91 1 106 16 15 15 -1 35
-23 29 -11 -3 -19 -1 -19 4 0 12 -20 10 -52 -8z"/>
<path d="M2221 4407 c-13 -34 -41 -310 -41 -402 0 -44 0 -98 -1 -120 0 -22 -2
-78 -3 -125 -2 -76 -15 -372 -18 -410 0 -8 -6 -18 -12 -22 -8 -6 -7 -11 3 -17
10 -6 10 -10 1 -16 -9 -6 -9 -9 -1 -15 9 -5 9 -14 2 -34 -6 -15 -12 -84 -14
-154 -2 -99 -7 -134 -20 -152 -15 -22 -15 -24 1 -36 16 -11 15 -15 -6 -43 -21
-29 -22 -59 -2 -46 11 7 23 -31 15 -45 -4 -6 -8 -39 -9 -73 -1 -35 -5 -67 -8
-72 -3 -6 -5 -48 -6 -95 0 -47 -3 -92 -5 -100 -3 -8 -8 -35 -11 -60 -2 -24
-10 -46 -15 -48 -6 -2 -11 -13 -11 -25 -1 -19 -2 -20 -11 -5 -7 13 -19 16 -46
12 -21 -2 -42 -9 -47 -14 -6 -6 -25 -10 -42 -10 -18 0 -36 -5 -40 -11 -3 -6
-17 -8 -29 -5 -18 5 -33 -3 -63 -33 -21 -21 -53 -42 -70 -46 -18 -3 -32 -12
-32 -18 0 -7 -4 -6 -12 2 -10 11 -10 14 0 18 6 3 12 9 12 14 0 15 -77 10 -90
-6 -15 -18 -46 -20 -56 -4 -4 8 -9 7 -14 -2 -11 -16 -69 -16 -80 1 -6 9 -10 7
-15 -9 -8 -28 -39 -27 -53 2 -6 12 -11 16 -11 10 -1 -18 -38 -16 -45 2 -7 19
-30 19 -45 1 -6 -7 -26 -17 -44 -21 -30 -8 -30 -8 -7 -12 43 -7 101 -36 96
-48 -2 -7 6 -18 20 -25 13 -8 24 -17 24 -22 0 -15 26 -8 48 12 12 12 28 17 37
13 13 -5 14 -7 3 -14 -8 -6 2 -9 30 -9 23 0 42 -4 42 -10 0 -6 27 -10 60 -10
64 0 110 -15 110 -37 0 -22 27 -15 34 10 l7 22 14 -26 c12 -23 23 -27 81 -33
37 -4 72 -10 78 -13 6 -4 29 -6 53 -4 26 1 43 -2 43 -8 0 -6 18 -11 40 -11 29
0 40 -4 40 -15 0 -11 7 -14 24 -9 16 4 25 1 29 -10 4 -9 25 -18 57 -22 27 -4
50 -10 50 -14 0 -10 123 -30 225 -35 88 -5 268 -5 450 0 50 1 133 -1 185 -4
52 -3 118 -3 145 0 28 3 52 2 55 -2 5 -6 58 -14 70 -9 17 6 293 4 297 -3 2 -4
9 -4 16 0 6 3 135 8 286 9 152 1 284 5 294 9 9 4 30 4 45 0 15 -4 41 -8 57 -9
17 -1 35 -4 40 -8 8 -5 80 -3 80 3 0 1 103 10 140 11 11 0 76 0 144 -1 80 -2
128 2 135 9 8 8 11 114 11 345 0 305 -2 336 -17 352 -12 11 -18 13 -18 5 0 -9
-5 -10 -17 -4 -49 25 -1477 18 -1508 -8 -8 -7 -12 -24 -10 -40 3 -25 -3 -34
-43 -63 -117 -84 -249 -81 -373 8 -27 19 -52 35 -55 35 -9 0 -76 51 -105 80
-96 96 -111 150 -116 420 -2 118 -3 240 -2 270 1 30 1 78 0 105 -1 28 -2 84
-2 125 0 41 0 98 -1 125 0 28 0 79 1 115 3 95 2 173 -3 274 -4 72 -10 100 -32
143 -26 52 -99 127 -139 143 -11 5 -46 30 -78 57 -93 77 -118 93 -144 93 -15
0 -26 -8 -32 -23z m-213 -2155 c2 -7 0 -12 -5 -11 -26 5 -35 -1 -24 -15 7 -8
8 -17 3 -20 -13 -8 -22 4 -22 30 0 32 38 44 48 16z m-86 -8 c10 -9 -4 -45 -15
-41 -19 6 -19 27 0 28 16 0 16 1 -2 9 -15 6 -16 9 -4 9 9 1 18 -2 21 -5z m-82
-20 c0 -8 -4 -12 -10 -9 -5 3 -10 10 -10 16 0 5 5 9 10 9 6 0 10 -7 10 -16z
m-220 -43 c0 -6 -4 -13 -10 -16 -5 -3 -10 1 -10 9 0 9 5 16 10 16 6 0 10 -4
10 -9z m-300 -11 c0 -5 14 -10 30 -10 17 0 30 -4 30 -10 0 -5 9 -10 20 -10 11
0 20 5 20 10 0 14 39 12 55 -2 8 -7 21 -19 30 -26 17 -14 20 -42 5 -42 -5 0
-10 5 -10 10 0 6 -6 10 -14 10 -7 0 -16 9 -19 20 -3 12 -14 20 -26 20 -14 0
-21 -6 -21 -20 0 -13 -7 -20 -19 -20 -11 0 -21 -6 -24 -12 -2 -8 -8 -9 -13 -4
-5 5 -4 11 4 13 17 6 15 40 -3 47 -8 3 -21 3 -29 0 -17 -6 -56 12 -56 26 0 6
9 10 20 10 11 0 20 -4 20 -10z m40 -45 c0 -8 -7 -15 -15 -15 -16 0 -20 12 -8
23 11 12 23 8 23 -8z"/>
<path d="M1858 2323 c7 -3 16 -2 19 1 4 3 -2 6 -13 5 -11 0 -14 -3 -6 -6z"/>
<path d="M1900 2316 c0 -10 28 -13 41 -5 10 6 7 9 -13 9 -16 0 -28 -2 -28 -4z"/>
<path d="M1840 2290 c0 -5 7 -10 15 -10 8 0 15 5 15 10 0 6 -7 10 -15 10 -8 0
-15 -4 -15 -10z"/>
<path d="M1725 2230 c3 -5 13 -10 21 -10 8 0 14 5 14 10 0 6 -9 10 -21 10 -11
0 -17 -4 -14 -10z"/>
<path d="M1100 2190 c0 -5 5 -10 10 -10 6 0 10 5 10 10 0 6 -4 10 -10 10 -5 0
-10 -4 -10 -10z"/>
<path d="M1048 2163 c7 -3 16 -2 19 1 4 3 -2 6 -13 5 -11 0 -14 -3 -6 -6z"/>
<path d="M11251 2104 c0 -11 3 -14 6 -6 3 7 2 16 -1 19 -3 4 -6 -2 -5 -13z"/>
</g>
</svg>
